<svg width="1357" height="390" viewBox="0 0 1357 390" fill="none" xmlns="http://www.w3.org/2000/svg">
<path d="M56.9532 225.062C57.1914 226.213 56.5297 232.429 56.713 235.926C55.3296 234.022 55.147 229.477 55.4582 226.821C55.7644 224.141 56.516 222.791 56.9532 225.062ZM266.867 116.584C265.72 118.127 264.624 119.638 263.471 121.188C267.926 118.779 273.454 114.584 277.835 112.497C278.554 112.156 277.882 114.881 279.495 113.937C281.108 112.994 279.391 110.978 281.521 109.269C283.885 107.362 296.847 101.263 301.107 98.5765C316.892 88.5356 332.935 77.1764 352.223 68.367C334.157 80.1755 353.967 71.7491 359.283 68.2145C360.642 67.4623 357.193 63.0586 380.07 54.2972C395.93 48.8799 382.457 60.7484 410.088 47.9029C386.436 50.7747 405.611 43.1122 429.76 38.3568C432.648 38.1371 453.231 33.1223 482.82 38.5901C520.184 46.2715 537.759 68.2891 544.843 76.9449C556.554 92.0515 563.77 104.892 566.615 113.235C568.667 119.593 568.17 123.235 569.708 129.864C575.501 157.697 575.661 172.737 576.413 189.528C569.29 180.424 574.058 197.114 573.763 197.729C572.202 201.622 570.712 184.529 569.993 191.409C570.748 200.902 571.41 209.88 572.131 218.375C572.513 211.366 578.208 227.246 576.293 229.972C579.147 229.096 578.513 238.493 577.752 246.955C576.983 255.727 576.09 261.784 577.161 261.924C577.401 262.036 578.079 261.377 578.697 261.359C579.004 261.338 579.314 261.554 579.472 261.781C579.545 261.878 579.587 261.985 579.488 261.83C579.375 261.655 579.184 261.304 578.385 259.864C577.616 258.509 576.282 259.81 575.99 258.833C575.593 258.325 579.784 251.759 567.93 243.09C566.854 242.35 567.255 243.351 567.699 244.499C568.17 245.675 568.49 246.807 567.998 246.891C567.433 246.968 566.38 245.952 561.653 241.819C557.28 238.527 546.552 227.56 522.054 223.481C519.816 223.128 517.561 222.888 515.389 222.761C520.309 221.616 518.354 220.441 512.979 219.899C507.695 219.372 501.846 220.351 499.896 221.06C495.532 222.804 502.055 221.162 503.877 220.71C502.822 220.447 501.839 220.131 500.94 219.758C502.766 219.921 503.918 219.264 504.454 218.69C505.011 218.103 505.135 217.488 505.568 217.278C509.1 215.582 515.684 213.358 519.426 210.328C523.98 206.642 521.681 203.98 528.135 200.593C526.306 201.065 524.509 201.498 522.748 201.889C526.647 199.076 530.561 196.134 534.649 192.956C528.517 204.1 536.795 191.485 537.411 190.788C538.461 189.673 538.026 192.55 539.82 190.71C540 190.501 538.525 189.41 541.432 186.638C547.52 180.8 547.985 183.362 550.67 180.955C550.906 180.724 548.978 180.294 553.373 175.831C567.405 161.416 554.1 176.881 553.716 177.493C553.171 178.351 562.754 178.961 548.565 188.298C553.254 185.202 555.706 187.007 556.231 186.644C556.718 186.311 563.795 179.36 564.15 178.88C567.123 174.783 562.52 176.219 562.986 175.296C563.383 174.553 574.108 168.26 572.021 161.75C580.203 161.833 573.045 167.918 566.496 175.124C566.235 176.96 574.88 170.502 575.312 170.077C585.533 160.455 576.661 162.378 576.84 158.107C576.933 155.869 583.292 154.211 576.564 154.834C585.52 145.678 581.582 152.787 582.428 152.479C583.696 151.998 586.113 148.009 586.632 147.729C587.394 147.323 586.321 150.372 589.034 148.465C589.48 148.138 591.542 142.676 585.818 146.547C592.606 140.482 590.591 139.455 595.807 140.364C594.664 130.146 602.438 140.59 604.55 139.159C610.166 135.33 604.314 132.145 604.349 131.677C604.674 128.582 619.414 117.078 622.144 113.06C624.036 117.65 611.633 123.561 610.185 126.234C605.399 135.124 621.496 118.274 620.558 127.307C621.543 124.104 622.501 120.924 623.518 117.684C630.011 116.455 625.634 123.088 635.129 111.735C634.57 107.781 628.102 119.436 628.148 115.836C628.162 113.739 634.019 107.465 633.6 106.783C633.058 105.998 628.318 112.281 628.182 110.381C627.853 106.311 650.155 88.326 635.973 104.819C640.151 100.59 646.838 102.677 649.194 97.6243C650.783 94.2954 630.932 101.881 652.771 82.5074C655.299 84.1162 644.989 91.3998 644.997 91.712C644.915 92.2491 651.099 95.4151 651.608 95.3706C653.282 95.1794 672.288 71.5592 679.632 69.2694C674.941 68.3631 696.977 52.1103 699.226 48.8305C699.662 48.0233 695.711 48.3738 696.237 47.5848C699.652 42.6309 714.586 35.1828 726.158 27.8507C726.286 27.7687 726.414 27.6873 726.54 27.6067C736.631 21.331 734.931 20.3755 735.431 20.0219C740.804 17.2027 737.138 20.7525 740.498 18.9592C743.118 17.6352 753.391 12.1535 767.815 8.08603C781.883 3.76996 800.005 3.1613 801.631 3.17841C802.677 3.11189 791.453 0.7379 806.391 0.433937C807.67 0.467636 807.935 1.04934 813.341 2.054C818.452 3.19311 830.305 4.42915 848.55 11.2129C859.12 15.3543 861.57 16.7138 861.486 16.0809C861.273 15.4851 857.82 13.029 852.917 10.2733C843.408 4.55434 826.404 -0.793106 837.618 0.723404C853.159 7.66537 858.289 11.1206 862.226 12.5055C865.977 13.9981 867.743 13.9604 870.489 15.8069C872.686 17.0983 883.989 28.9203 891.934 35.7426C885.568 31.068 877.725 25.3114 866.206 19.0699C877.818 26.4665 891.016 36.8434 894.41 40.843C896.191 42.888 892.806 43.611 896.839 47.1961C897.259 47.5611 899.42 47.2087 899.989 45.9135C900.472 44.5641 899.848 42.5818 892.644 38.2934C893.302 35.5898 898.118 41.9774 900.67 43.4221C901.063 43.6378 905.263 41.9299 906.033 46.1411C906.123 46.6545 902.471 47.5482 901.671 49.5194C900.763 51.3699 903.386 55.0402 912.604 57.6207C913.192 57.7796 912.805 55.3999 913.408 55.5291C913.712 55.6071 915.143 57.2606 916.063 58.1936C922.96 64.3873 926.937 69.608 928.189 71.0651C930.303 73.6635 927.517 69.0053 923.958 64.4521C920.455 59.8992 916.245 55.6093 919.72 58.5553C928.487 66.1712 935.131 75.757 938.739 83.0747C942.02 89.7257 943.335 94.8927 943.631 97.5259C943.882 100.148 943.263 100.431 941.366 96.951C938.937 93.2669 937.74 86.726 924.148 69.5099C942.241 93.4926 942.765 108.588 944.337 118.972C945.553 112.496 947.042 117.206 947.717 124.429C948.283 130.573 947.675 138.752 947.668 142.466C947.598 156.041 947.024 160.639 947.157 163.856C947.223 166.865 947.662 167.485 948.274 167.189C949.499 166.613 951.303 162.123 951.696 165.439C952.815 175.892 945.781 167.442 945.84 181.116C945.84 181.749 947.47 178.259 948.111 178.43C948.737 178.503 948.496 182.999 944.382 196.35C945.16 192.421 945.964 188.154 946.69 183.859C941.588 185.516 943.751 198.79 943.564 199.687C941.692 209.929 941.738 203.018 940.296 217.936C940.156 219.288 938.294 221.679 938.118 224.472C937.371 236.11 943.548 210.316 945.568 209.749C946.595 209.99 938.726 237.515 938.034 238.008C935.028 241.336 940.654 225.719 937.428 228.061C936.264 229.371 927.139 266.395 924.368 272.408C921.004 279.91 913.92 281.438 920.828 283.469C913.435 283.615 917.565 286.757 917.259 287.677C913.682 298.3 913.511 298.739 912.703 305.522C912.586 306.813 910.34 307.217 910.658 307.505C910.856 307.65 913.136 307.92 913.77 308.448C913.933 308.549 913.986 308.688 914.012 308.294C914.022 307.876 914.099 306.94 913.952 303.378C913.016 298.917 915.97 294.195 904.866 269.337C901.433 262.556 896.253 254.619 888.694 247.087C880.518 238.79 868.79 231.089 857.075 226.886C833.072 218.686 819.014 221.702 808.738 223.708C809.723 223.912 810.458 224.152 810.69 224.442C811.199 225.076 810.082 225.43 809.229 225.958C828.942 219.921 863.925 232.144 845.472 227.768C830.431 224.305 818.129 225.609 809.556 227.462C812.192 226.954 814.417 225.89 816.952 225.16C818.134 224.817 818.072 226.401 818.59 226.231C818.817 226.206 822.388 223.203 821.966 222.769C820.937 222.276 809.278 227.03 811.73 223.509C812.158 222.893 815.312 225.417 813.691 221.636C823.578 219.437 836.358 212.397 853.709 196.136C846.333 207.972 834.919 213.971 827.906 218.567C826.892 219.273 823.478 220.726 824.855 222.316C831.081 219.666 839.09 212.449 847.694 206.28C847.971 206.086 848.321 208.288 849.446 207.654C851.543 206.523 855.305 198.655 856.879 198.123C857.178 198.089 855.516 203.206 857.643 203.285C863.15 203.438 857.553 196.499 859.949 194.168C861.663 192.636 877.703 181.469 879.28 175.568C880.697 169.68 868.096 185.517 867.441 182.682C874.44 171.517 886.005 162.076 895.923 150.765C896.098 150.563 893.177 151.024 895.257 148.363C898.915 143.707 901.952 144.305 904.272 142.44C906.718 140.441 914.58 131.782 916.446 131.307C916.674 131.253 916.826 134.789 916.629 135.096C913.809 139.492 910.188 138.425 909.83 138.73C908.547 139.883 908.331 141.985 907.219 143.05C905.39 144.803 903.569 144.999 901.267 147.329C899.685 148.928 902.838 148.893 901.301 150.407C900.71 150.965 891.191 153.642 894.674 157.775C893.895 159.905 947.886 107.826 957.044 101.688C950.792 105.655 944.822 109.748 939.108 113.893C950.628 105.675 963.145 91.3483 967.917 95.8225C981.329 86.6153 996.269 78.1446 1012.27 71.3411C1041.97 60.1887 1051.53 64.0893 1061.82 64.1949C1070.69 65.0718 1077.3 66.4805 1083.25 67.8906C1094.9 70.7406 1103.55 73.7031 1112.12 76.776C1128.94 82.913 1143.51 89.2737 1157.8 95.7707C1164.78 99.4675 1159.19 101.379 1171.24 105.582C1168.83 103.049 1166.33 100.492 1163.87 97.9663C1169.65 101.465 1194.6 115.166 1199 116.424C1199.57 116.582 1201.93 113.627 1208.37 116.417C1214.1 118.905 1213.77 121.817 1216.49 123.748C1218.8 125.375 1221.91 126.111 1222.57 126.611C1223.08 127 1222.56 128.619 1223.77 129.553C1227.65 132.504 1226.31 126.532 1228.12 133.523C1226.99 133.193 1225.87 132.862 1224.74 132.53C1229.57 135.82 1235.39 141.52 1227.33 138.836C1225.94 138.375 1227.78 137.476 1226.81 136.994C1188.43 118.307 1217.66 136.244 1232.04 140.667C1234.37 144.525 1254.01 152.847 1254.35 153.563C1254.92 154.625 1250.79 154.686 1254.3 158.343C1255.04 159.119 1280.42 170.547 1270.11 168.891C1268.04 168.582 1256.31 161.81 1253.41 160.441C1257.91 168.483 1277.13 170.055 1278.62 171.014C1285.39 175.334 1263.08 168.105 1278.73 176.706C1290.57 183.164 1280.79 174.433 1286.08 175.449C1287.2 175.642 1290 177.509 1292.48 179.039C1284.04 175.004 1277.33 173.953 1273.33 173.476C1269.78 173.084 1267.16 173.091 1265.1 173.164C1261.59 173.318 1259.77 173.662 1258.66 173.845C1256.43 174.257 1256.09 174.371 1255.81 174.294C1255.45 174.116 1255.87 173.273 1255.34 171.92C1256.1 171.404 1256.73 171.718 1256.88 172.308C1257.06 172.883 1256.99 173.642 1257.18 173.674C1257.16 173.911 1263.82 169.791 1267.12 169.465C1267.5 169.445 1267.45 172.212 1267.87 172.261C1268.6 172.367 1276.79 168.232 1277.09 167.843C1277.24 167.611 1274.31 166.492 1274.92 165.628C1275.6 164.664 1284.15 161.333 1284.38 160.515C1284.6 159.375 1274.59 164.636 1275.3 161.581C1280.2 160.072 1287.35 154.901 1289.73 151.56C1289.15 152.467 1284.53 154.732 1282.82 155.301C1282.04 151.676 1292.12 146.967 1289.91 151.19C1291.45 148.753 1289.6 148.721 1290.23 146.811C1290.36 146.393 1292.79 145.126 1293.61 144.248C1293.75 144.113 1293.84 143.987 1293.89 143.874C1293.9 143.84 1293.71 143.833 1293.42 143.833C1292.42 143.805 1290.09 143.85 1290.36 143.082C1290.53 142.637 1291.25 142.036 1292.25 141.389C1295.52 139.324 1300.68 137.061 1304.49 135.68C1305.83 135.23 1307.12 134.851 1307.11 134.998C1307.13 135.13 1306.01 135.726 1305.02 136.305C1303.15 137.423 1302.16 138.212 1301.04 139.076C1298.99 140.719 1297.12 142.377 1297.12 143.227C1297.12 143.355 1299.14 143.283 1301.49 143.074C1302.07 143.02 1302.63 142.982 1303.31 142.877C1303.97 142.784 1304.5 142.737 1305.29 142.554C1306.04 142.388 1306.55 142.311 1307.65 141.953C1308.59 141.662 1309.58 141.344 1309.69 141.336C1306.02 145.884 1298.89 147.176 1300.58 149.173C1302.94 148.654 1304.54 148.46 1308.5 147.256C1305.88 148.944 1304.77 149.867 1303.1 150.945C1301.47 152.009 1299.91 152.953 1298.23 153.92C1292.35 157.337 1286.36 160.279 1285.03 162.984C1289.84 160.283 1295.01 157.613 1299.37 156.298C1303.93 154.916 1307.99 154.86 1309.41 157.938C1310.53 160.502 1306.32 164.325 1306.86 164.858C1307.77 165.834 1309.51 164.941 1311.3 163.7C1311.74 163.393 1312.16 163.076 1312.65 162.722C1313.12 162.379 1313.51 162.075 1314.08 161.704C1314.75 161.165 1317 160.042 1317.53 159.884C1318.82 159.473 1320.91 158.699 1324.78 157.839C1328.37 156.913 1335.38 156.552 1335.33 156.704C1335.33 156.704 1335.33 156.704 1335.33 156.704C1335.38 156.749 1332.55 156.844 1329.77 157.281C1326.93 157.706 1324.4 158.359 1322.64 158.912C1319.13 160.033 1317.57 160.86 1317.25 161.064C1316.63 161.413 1316.09 161.736 1315.59 162.05C1315.17 162.324 1314.92 162.531 1314.56 162.78C1313.24 163.737 1312.19 164.565 1310.95 165.45C1308.65 167.142 1306.51 168.655 1306.41 169.08C1306.14 170.547 1312.44 173.052 1312.88 174.065C1312.87 174.219 1310.48 175.925 1309.42 177.35C1308.8 178.201 1308.67 178.949 1309.8 179.216C1309.97 179.257 1310.15 179.292 1310.36 179.305C1313.47 179.618 1318.81 177.123 1319.23 177.147C1320.35 177.598 1314.7 181.207 1312.18 183.134C1311.44 183.703 1310.95 184.134 1310.94 184.31C1310.94 184.449 1311.75 184.458 1312.81 184.436C1314.73 184.372 1317.43 184.202 1317.68 184.517C1317.99 184.869 1316.14 186.691 1314.81 188.639C1314.35 189.331 1313.97 190.033 1313.76 190.702C1313.27 192.25 1315.9 192.061 1316.53 192.233C1316.67 192.266 1316.72 192.317 1316.62 192.407C1316.62 192.409 1316.62 192.411 1316.62 192.414C1316.15 192.808 1306.8 197.217 1306.44 197.651C1305.9 198.318 1308.86 198.829 1308.72 199.372C1308.52 200.153 1305.22 201.011 1305.88 201.403C1306.34 201.731 1320.78 201.458 1321.38 202.921C1322.43 205.422 1307.11 205.807 1323.46 209.852C1323.51 209.861 1324 209.489 1324.56 209.059C1325.34 208.477 1326.15 207.836 1326.21 207.849C1327.62 208.374 1325.95 210.728 1325.88 211.816C1325.87 212.021 1325.93 212.177 1326.09 212.26C1326.62 212.528 1328.19 212.04 1331.95 210.047C1329.75 211.518 1328.13 212.679 1326.77 213.682C1318.32 220.021 1326.48 217.277 1329.2 218.761C1329.79 219.07 1330.13 219.576 1329.99 220.413C1329.98 220.457 1329.97 220.502 1329.96 220.548C1329.56 222.685 1321.64 227.238 1321.73 227.477C1323.46 229.118 1325.38 226.309 1326.7 226.888C1327.48 227.193 1321.1 232.797 1323.4 233.395C1324.62 233.699 1332.27 229.763 1332.68 229.733C1336.32 229.597 1333.3 232.765 1334.39 233.379C1334.64 233.509 1335.28 233.374 1336.06 233.131C1337.73 232.596 1339.88 231.625 1339.98 231.671C1340.16 231.742 1338.67 233.487 1337.1 235.307C1335.92 236.714 1334.63 238.197 1334.25 238.856C1333.56 240.018 1337.86 239.273 1337.3 239.903C1333.87 243.722 1322.57 243.506 1334.39 245.678C1335.09 245.823 1338.36 244.078 1338.49 244.111C1341.4 244.924 1335.37 247.988 1334.94 249.983C1334.25 253.41 1342.44 247.807 1335.9 253.08C1339.42 252.543 1341.93 251.82 1344.46 250.719C1346.51 249.822 1348.69 248.621 1351.14 247.208C1348.89 248.504 1346.63 249.965 1344.75 251.333C1334.49 258.755 1333.95 264.296 1347.98 258.097C1348.9 257.687 1349.72 257.304 1350.74 256.807C1349.58 257.34 1348.81 257.837 1348.12 258.394C1345.23 260.81 1346.59 263.217 1345.05 264.011C1343.93 264.601 1332.82 265.314 1340.99 271.573C1342.05 272.34 1347.08 268.359 1346.31 271.306C1332.36 277.208 1346.66 272.793 1346.8 273.058C1349.15 278.014 1313.17 289.771 1304.52 293.269C1296.36 297.023 1285.97 305.341 1271.69 306.31C1267.04 306.605 1261.09 306.541 1254.45 305.398C1246.83 304.149 1239.26 301.344 1234.3 298.759C1234.02 298.313 1234.36 298.018 1234.79 297.75C1245.15 302.121 1255.38 303.3 1244.18 299.981C1242.53 299.38 1239.74 298.436 1235.46 296.36C1233.12 294.978 1219.42 292.198 1218.94 291.706C1216.73 289.568 1220.55 288.641 1220.33 288.387C1217.88 285.405 1199.7 278.366 1195.29 275.455C1194.67 276.993 1204.22 282.015 1196.98 281.302C1188.71 280.562 1191.51 273.807 1191.52 273.446C1159.85 257.402 1128.45 241.737 1097.88 228.31C1096.66 231.948 1117.87 238.383 1118.18 239.15C1119.49 242.966 1085.78 227.652 1082.51 225.067C1085.25 227.111 1087.96 229.168 1090.73 231.279C1083.75 233.096 1074.42 222.946 1066.74 222.226C1064.3 222.001 1067.96 225.201 1067.85 225.292C1064.7 225.944 1061.2 223.267 1065.01 222.174C1058.19 222.087 1059.92 220.106 1055.79 218.565C1055.6 218.499 1056.72 220.728 1053.41 220.484C1052.61 220.421 1050.48 219.881 1048.83 219.72C1048.04 219.647 1047.42 219.674 1047.05 219.829C1046.68 219.985 1046.57 220.269 1046.49 220.654C1046.44 220.982 1046.09 222.859 1046.14 223.967C1046.18 225.073 1046.67 225.435 1047.5 222.546C1049.8 224.622 1050.98 224.302 1051.21 223.283C1051.54 222.304 1051.32 220.795 1052.85 221.324C1053.1 221.413 1052.68 222.171 1053.3 223.034C1053.88 223.896 1055.42 224.806 1060.29 225.68C1056.3 230.604 1048.36 223.398 1047.66 224.092C1046.54 224.603 1047.54 225.986 1050.3 227.193C1053.1 228.399 1057.72 229.565 1059.93 227.857C1057.02 231.839 1060.82 228.825 1064.37 230.36C1068.33 232.08 1066.11 232.744 1068.31 233.602C1074.37 236.031 1073.2 231.982 1077.19 236.856C1075.59 226.124 1086.72 239.48 1090.01 243.643C1082.92 241.045 1076.03 238.651 1069.36 236.523C1069.55 237.121 1069.74 237.721 1069.93 238.323C1068.23 237.574 1066.67 236.886 1064.98 236.166C1065.42 235.832 1065.86 235.499 1066.3 235.167C1056.75 234.776 1056.33 231.135 1055.67 230.848C1051.77 229.303 1047.86 228.068 1046.01 227.61C1045.14 227.374 1044.82 227.385 1046.42 227.57C1048.23 227.581 1051.37 228.668 1063.42 226.49C1067.76 225.418 1068.08 226.686 1078.4 223.024C1077.89 223.747 1076.75 224.374 1073.4 224.769C1071.22 225.067 1071.85 222.036 1069.88 223.517C1070.4 230.609 1067.92 226.16 1067.08 226.652C1064.77 228.078 1064.19 230.416 1064 230.567C1061.26 232.698 1056.69 235.808 1053.37 238.931C1053.33 239 1056.37 239.026 1053.77 240.444C1052.97 240.814 1039.98 240.889 1034.83 250.066C1037.04 248.642 1039.22 247.294 1041.36 246.031C1038.91 247.019 1025.18 264.497 1030.55 262.157C1033.88 260.592 1035.45 251.167 1039.74 254.299C1034.48 256.735 1005.74 292.628 1001.24 295.77C1000.74 296.066 1001.77 292.391 1001.09 292.817C1000.63 293.105 992.821 302.297 991.152 303.109C990.211 303.561 993.14 298.848 992.381 298.765C991.894 298.707 980.652 309.665 981.427 311.854C983.631 308.371 991.536 300.972 988.973 306.348C988.638 307.036 985.005 308.89 984.579 309.744C980.722 317.635 997.426 298.982 999.58 296.478C991.856 309.102 972.488 325.203 957.4 340.499C949.813 344.767 965.043 330.156 956.897 335.39C939.752 346.101 954.446 340.749 954.158 341.307C951.565 346.063 931.668 349.325 935.866 355.132C928.8 358.819 930.526 356.629 921.516 363.647C923.059 363.262 924.595 362.865 926.125 362.457C917.995 373.501 887.501 376.689 889.213 374.713C893.428 370.559 907.47 366.92 908.443 366.17C909.926 365.059 910.633 356.761 929.443 351.68C932.978 343.534 902.977 365.058 915.323 353.103C906.988 360.851 860.547 377.267 853.832 379.824C853.065 380.274 858.28 384.209 845.617 384.66C839.64 384.804 853.374 381.543 850.475 381.046C849.404 380.879 846.872 381.177 843.162 381.713C831.514 383.783 808.509 387.576 781.49 368.027C769.22 358.436 763.398 349.068 759.067 340.107C754.948 330.957 754.099 326.51 752.948 320.897C750.021 302.031 752.054 294.768 752.771 287.341C754.856 273.073 757.571 262.719 760.104 252.518C765.234 232.574 769.944 215.845 771.571 209.946C771.823 209.078 773.198 209.833 773.438 208.978C774.173 206.362 774.758 196.343 776.721 192.093C771.286 200.6 776.35 182.468 777.813 178.208C780.105 171.667 782.578 172.781 783.876 170.124C789.049 159.595 785.849 142.75 791.689 141.288C790.375 141.22 789.805 140.944 789.695 140.731C789.589 140.535 789.916 140.412 790.494 141.193C791.125 142.063 791.783 143.728 793.728 148.662C795.733 153.317 799.726 164.296 812.236 175.06C811.34 173.992 810.499 173.072 809.709 172.349C804.214 167.314 794.831 163.843 799.685 171.675C791.361 163.409 783.09 157.54 782.918 158.122C782.96 158.223 783.776 156.657 783.918 156.94C783.968 156.999 782.926 158.4 783.632 159.015C785.273 160.43 788.852 161.867 790.972 162.251C793.205 162.696 794.294 162.495 794.677 162.134C795.454 161.392 793.929 159.939 796.174 159.762C798.693 159.526 800.488 159.272 801.725 159.178C795.045 159.167 787.923 156.192 786.485 155.02C784.696 153.752 786.001 154.271 786.4 154.6C786.805 153.708 786.519 152.962 786.522 152.817C786.525 152.651 786.939 153.235 788.885 154.379C792.649 157.034 803.036 158.761 805.476 157.618C805.671 157.56 804.745 155.55 804.951 155.513C804.956 155.513 804.96 155.513 804.964 155.512C806.09 155.374 809.531 154.832 810.635 154.884C811.884 154.941 811.969 155.749 812.51 156.888C812.606 157.294 813.004 158.482 803.574 159.18C805.992 159.487 804.404 161.95 804.832 162.021C807.66 162.432 811.55 161.224 812.773 160.218C814.16 159.185 813.501 158.678 813.133 158.732C812.956 158.754 813.711 160.057 813.69 160.073C813.02 160.154 811.547 157.809 811.661 159.046C811.819 159.282 812.102 159.743 812.513 160.561C811.677 159.785 811.13 159.336 811.017 158.903C810.881 158.488 811.086 158.166 811.066 158.127C811.693 157.645 812.355 157.431 812.523 157.238C812.706 157.037 812.49 156.78 812.059 155.859C811.727 155.172 811.476 154.72 809.56 155.802C807.378 156.389 790.286 173.856 792.94 175.623C792.529 175.389 791.703 175.391 790.394 175.74C787.635 176.344 779.108 185.092 778.097 187.175C777.941 187.538 780.892 190.379 780.595 190.72C779.845 191.554 766.764 199.851 764.295 205.716C766.95 203.898 769.547 202.143 772.126 200.414C758.818 213.576 761.652 212.526 767.037 208.91C767.271 208.694 767.6 208.588 767.827 208.387C771.958 205.574 776.904 201.943 777.231 202.076C778.391 202.611 756.08 225.68 757.751 218.684C758.073 217.627 769.744 208.441 762.653 211.653C761.453 212.171 755.064 219.605 754.541 219.706C750.727 220.69 763.78 204.018 759.967 203.832C758.314 209.246 752.572 212.955 748.955 217.531C747.283 219.635 748.257 221.562 748.05 221.822C744.897 225.714 745.36 222.218 744.215 223.433C743.602 224.095 739.91 234.224 736.763 228.449C716.902 254.672 733.722 238.033 747.492 223.823C744.693 229.853 735.157 237.761 731.579 242.049C730.291 243.595 732.621 244.255 730.501 246.943C726.255 252.42 700.429 274.23 693.455 279.956C696.91 275.645 694.166 275.089 691.217 278.108C688.263 281.126 692.943 280.913 692.572 281.718C692.208 282.574 676.636 295.148 674.342 297.727C684.744 286.64 680.696 287.281 671.052 295.805C671.985 294.062 672.927 292.303 673.839 290.568C668.95 296.375 654.683 304.452 652.03 308.102C651.62 308.682 654.755 308.498 654.525 308.823C652.149 312.034 640.681 319.221 640.541 320.158C640.496 320.914 645.951 318.43 644.83 320.414C644.644 320.79 638.591 322.496 634.72 326.468C633.277 327.946 635.382 328.579 635.047 328.987C632.226 332.383 632.287 328.443 626.236 333.843C621.874 337.706 619.888 343.027 612.403 347.208C637.132 333.529 617.83 346.311 608.103 354.373C606.437 355.694 610.303 357.268 598.643 362.897C617.151 343.479 591.535 364.216 583.741 368.037C583.36 368.219 582.194 366.403 578.887 368.136C578.602 368.283 579.75 369.37 576.403 371.221C560.636 379.701 554.598 380.906 555.398 380.282C555.72 379.688 559.911 377.287 555.879 378.014C554.335 378.246 548.212 380.892 540.828 383.126C533.417 385.484 523.225 387.216 518.422 387.357C516.096 387.383 517.299 386.113 508.111 385.834C505.446 385.705 502.755 385.51 500.058 385.228C477.354 382.835 458.646 371.288 450.314 363.503C449.8 362.562 447.829 359.742 435.666 343.675C432.655 339.471 429.39 335.325 432.254 341.596C435.287 347.585 440.1 355.564 451.136 365.419C461.406 374.807 480.346 385.138 499.785 387.236C519.692 389.422 533.542 386.027 542.492 384.948C555.598 382.183 531.164 393.833 499.427 389.866C484.71 387.923 474.59 382.923 472.88 382.197C470.08 381.285 498.626 391.385 470.446 379.433C445.015 367.326 424.654 341.863 420.401 328.496C420.193 327.943 419.721 324.537 419.567 321.505C419.473 318.665 419.615 316.149 419.784 316.329C419.945 316.558 421.312 319.917 423.257 323.797C425.116 327.509 427.291 330.968 427.167 329.517C426.99 329.15 422.606 318.574 423.157 317.503C423.469 315.661 430.871 309.088 430.591 307.338C429.85 302.867 428.683 306.256 428.053 303.499C426.339 296.913 425.912 279.559 422.821 279.57C423.082 282.396 423.386 285.233 423.749 288.107C420.635 272.453 420.601 279.467 419.622 277.339C418.655 275.153 421.466 275.38 421.061 270.37C420.844 269.152 418.268 249.656 417.231 250.257C420.028 260.665 416.293 257.109 416.266 257.591C416.23 259.493 418.392 261.712 418.653 264.336C420.68 283.006 415.283 264.505 415.069 269.024C414.987 270.521 417.041 273.502 417.052 274.163C417.088 276.366 414.971 276.717 415.362 278.153C416.283 281.501 418.676 277.062 418.878 277.317C421.117 279.925 421.127 293.01 416.433 285.74C416.117 290.66 420.213 290.616 419.492 294.919C418.226 303.73 416.21 291.287 415.209 288.347C411.376 277.666 412.44 274.298 410.408 260.683C409.715 255.877 407.288 250.436 407.01 248.313C406.796 246.846 412.688 233.955 402.076 234.333C402.786 229.474 409.359 221.782 408.784 217.187C408.26 213.028 404.579 214.574 404.412 214.19C404.15 213.595 404.175 208.656 403.552 207.03C402.817 205.141 401.437 206.163 400.682 203.194C398.801 195.824 402.638 195.916 402.842 195.137C405.164 186.419 399.955 190.578 399.393 188.762C399.134 187.993 399.102 181.426 398.802 175.899C398.498 170.097 397.95 166.521 397.269 166.743C398.074 166.809 398.995 167.464 399.932 168.421C400.953 167.249 400.425 166.535 400.223 166.27C400.012 165.962 400.112 165.979 402.194 165.448C398.846 166.299 398.195 166.314 399.037 167.982C399.713 169.264 402.71 173.52 404.989 177.244C406.811 180.167 405.47 180.52 408.982 184.998C413.407 190.191 425.328 204.047 450.302 209.062C457.658 210.161 459.701 209.151 460.1 209.626C460.636 210.028 460.709 210.522 460.783 211.047C460.831 211.573 460.802 212.139 460.374 212.726C459.709 213.83 456.346 215.406 449.195 214.868C438.748 213.07 429.242 209.034 422.25 204.78C415.761 200.866 411.211 196.921 407.935 193.731C401.552 187.31 400.149 184.78 399.144 183.497C400.824 185.807 402.398 188.821 409.536 195.898C415.91 202.122 429.473 212.509 448.924 216.285C455.996 217.884 459.591 217.913 460.742 218.608C461.389 218.924 461.67 219.318 461.732 219.804C461.761 220.29 461.67 220.872 460.571 221.568C459.71 222.177 456.728 219.111 455.63 218.906C451.608 218.259 450.438 218.437 451.109 219.2C451.681 219.924 453.33 220.864 452.933 220.954C452.302 221.095 450.504 220.393 448.327 219.415C429.736 215.466 416.019 204.419 412.414 201.556C411.006 200.484 414.36 204.018 412.359 203.252C411.09 203.164 399.627 194.683 393.093 183.435C394.039 185.708 395.607 189.433 402.012 196.753C408.532 203.999 423.166 217.36 447.797 222.194C460.452 224.309 462.304 222.067 462.679 222.637C462.799 222.722 462.725 224.104 463.014 224.764C463.149 225.096 463.436 225.236 463.59 224.981C463.719 224.737 463.708 224.072 462.439 223.108C462.614 223.562 462.785 224.017 462.953 224.473C461.13 225.158 456.43 227.056 451.189 229.651C451.314 228.37 453.413 224.994 449.805 227.115C447.645 228.399 450.364 229.892 450.184 230.053C449.929 229.959 406.75 253.138 397.353 260.006C394.393 261.96 386.944 269.098 386.305 269.562C382.536 272.205 367.783 280.298 364.984 282.486C363.299 283.81 366.135 284.431 364.489 285.397C362.959 286.292 363.388 283.606 362.902 283.825C359.051 285.491 331.671 306.692 322.126 310.254C327.688 307.566 346.99 290.21 345.663 289.358C345.521 289.221 339.466 291.357 338.831 292.658C336.156 292.329 332.906 300.745 328.747 302.159C328.274 302.315 328.293 298.806 321.684 302.34C319.326 303.6 314.765 309.206 306.679 310.939C303.989 312.871 298.591 316.164 287.906 321.211C271.955 328.522 246.298 338.634 244.206 341.893C244.168 342.103 251.74 340.017 247.448 343.304C241.651 347.67 245.256 339.799 237.241 342.584C236.62 342.788 230.969 345.295 223.88 348.035C217.19 350.726 206.939 353.818 206.004 354.172C199.271 357.432 207.016 356.971 213.758 355.776C220.634 354.572 226.475 352.849 226.43 353.079C226.096 353.697 221.294 355.923 214.285 358.245C207.809 360.544 196.335 362.874 195.073 362.859C194.403 362.896 202.742 360.232 204.944 358.694C206.13 357.941 206.333 357.489 204.206 357.805C201.533 358.071 198.559 359.535 183.28 361.204C190.651 361.248 196.066 360.837 200.723 360.438C191.498 362.86 182.402 363.038 175.946 362.344C169.324 361.632 165.55 360.483 159.926 359.568C154.236 358.604 147.656 357.117 140.969 354.844C122.378 349.76 91.4406 331.427 81.7048 301.923C78.8047 293.241 87.3156 305.664 87.1062 304.537C83.1001 294.109 73.429 284.364 74.6426 272.515C74.6453 272.041 76.9834 278.048 77.8814 278.624C79.04 279.641 76.4357 272.149 74.2326 255.379C74.1291 257.675 74.0895 260.087 74.1465 262.657C73.1889 260.092 71.4904 250.07 71.0096 242.801C70.4412 235.289 70.4582 229.877 70.5509 228.656C70.8693 225.062 71.7201 225.066 72.4476 224.827C73.1756 224.678 73.7922 224.263 73.652 221.551C71.7308 223.363 70.7067 219.541 70.4916 217.647C70.386 216.677 70.4851 216.329 70.8557 216.582C71.2232 216.815 71.8729 217.459 72.6699 217.198C71.7022 217.667 71.1252 218.495 71.4934 221.848C72.36 225.491 72.0492 231.916 83.246 248.29C93.5437 265.766 127.411 280.797 141.513 279.235C145.183 279.34 148.372 279.152 151.092 278.849C153.521 278.569 155.365 278.234 157.05 277.881C158.699 277.532 160.135 277.157 161.215 276.847C162.187 276.566 162.999 276.31 163.687 276.09C167.52 274.85 169.253 274.362 169.547 274.692C169.9 274.968 169.28 275.776 169.043 275.802C168.535 275.878 167.638 274.402 166.515 273.858C165.999 273.818 165.411 273.892 164.724 274.159C163.861 274.494 156.933 281.311 148.34 283.322C146.657 283.726 141.273 281.506 143.155 278.905C146.404 274.434 156.693 272.456 155.071 270.156C153.364 267.676 143.218 276.22 140.048 277.767C125.31 284.969 131.561 277.216 130.669 276.634C128.508 275.22 121.015 280.066 120.601 280.079C118.805 280.108 123.108 275.167 122.437 273.894C121.515 272.265 112.471 274.017 113.779 272.439C115.671 270.175 123.815 268.333 124.175 267.946C128.692 262.931 118.832 264.075 115.645 263.587C114.674 263.431 116.578 260.95 115.961 261.116C106.428 263.731 117.57 267.282 111.919 270.164C106.922 272.709 111.456 266.463 111.201 266.44C110.861 266.452 105.176 269.885 103.72 269.622C103.014 269.472 114.753 255.47 112.802 253.78C108.405 257.218 104.006 260.661 99.6155 264.102C97.5203 261.61 105.538 259.324 106.051 258.605C107.097 257.149 102.314 258.255 101.938 257.285C101.673 256.685 105.011 251.818 100.365 253.642C98.7474 254.28 96.9726 258.089 90.5541 259.438C107.025 245.454 93.5364 251.89 92.384 251.268C91.2819 250.615 98.4182 242.884 88.2207 249.939C84.3971 244.929 87.3559 248.136 89.7696 245.292C92.6761 241.835 83.1316 245.453 97.3209 238.291C95.0135 236.272 84.3494 243.302 83.6781 243.453C83.0767 243.584 84.6788 240.85 83.5699 240.975C70.4476 242.599 78.7481 240.387 73.9044 239.172C73.437 239.084 63.2555 243.987 70.1913 238.934C82.8673 229.711 90.6041 229.74 88.061 220.802C76.1932 223.755 67.4846 236.126 64.559 238.112C60.1222 241.113 63.8084 236.602 62.9837 236.525C62.7007 236.51 58.9014 239.117 58.7439 239.047C52.2806 235.11 76.1114 227.822 81.833 222.793C79.6081 223.002 77.3282 223.247 75.0771 223.474C77.3703 221.966 79.6523 220.466 81.965 218.948C69.8119 224.253 81.1575 218.542 80.9534 212.156C80.9001 210.726 74.8181 217.102 81.2355 208.954C74.7011 212.167 76.0535 209.976 71.3519 214.804C70.3055 212.855 81.4202 202.842 85.7128 198.781C67.0414 207.702 81.2935 208.225 63.9904 214.165C62.6831 218.234 69.5364 213.24 69.2073 213.984C67.9924 216.678 61.7038 217.631 58.8392 226.194C58.3813 227.592 63.9853 227.417 57.9032 231.137C57.2039 231.56 52.046 231.949 52.0235 231.753C51.4682 229.828 55.6756 227.992 55.4113 227.21C55.1422 226.481 51.1335 229.586 51.0184 229.41C49.5806 227.474 54.0585 226.374 53.1189 226.082C51.0851 225.437 33.0393 230.838 53.7856 219.369C38.6979 232.244 53.0768 222.966 58.9663 217.975C60.4916 216.692 60.1071 215.233 62.1875 213.316C64.8838 210.832 68.7264 209.205 70.1703 207.974C71.6844 206.667 60.3359 209.858 74.6572 201.954C65.8307 203.558 55.415 214.46 47.2092 216.892C30.7077 221.757 53.7729 205.783 55.9886 203.833C56.5725 203.312 53.3438 203.068 53.7117 202.693C54.314 202.09 68.2164 194.307 68.6612 192.125C69.1196 189.932 63.7812 195.314 62.4896 194.153C61.5893 193.388 76.7079 181.418 67.5313 186.334C61.2045 189.726 52.5295 200.616 48.0382 197.71C56.6866 191.719 65.3446 185.739 74.0074 179.765C68.1577 181.284 62.3077 182.806 56.4613 184.33C66.094 177.509 75.858 173.79 83.8792 165.572C57.9579 174.975 88.7309 156.891 88.6767 156.077C88.578 155.628 77.0068 157.253 75.1247 157.404C77.6633 154.987 82.5081 151.263 86.7313 147.732C97.166 139.553 111.599 130.852 91.7082 136.897C94.6078 136.036 98.1198 133.561 102.539 130.765C106.874 127.988 111.088 125.516 111.149 125.363C109.088 124.603 98.5799 128.731 92.749 131.797C86.216 135.104 82.2098 137.523 83.2393 135.471C86.0944 130.576 93.5721 130.247 104.223 125.294C117.523 119.79 137.175 109.935 170.637 117.213C205.084 125.702 223.751 150.866 231.24 163.281C246.428 189.391 247.889 205.828 247.163 221.29C247.655 220.7 248.146 220.088 248.635 219.452C248.132 231.409 248.337 237.287 247.602 232.864C246.934 230.474 246.221 224.007 239.108 212.323C232.528 200.634 215.148 186.701 202.169 182.936C176.075 174.912 166.964 179.792 164.046 179.844C162.433 180.233 161.985 180.444 161.939 180.509C161.919 180.572 162.351 180.499 163.018 180.325C164.46 175.707 185.771 163.499 197.225 158.436C198.601 157.843 203.551 156.395 207.591 155.249C207.998 155.586 209.281 155.403 209.456 155.478C210.003 155.604 209.231 156.309 208.932 156.837C208.779 157.104 208.741 157.332 208.805 157.559C208.879 157.782 208.989 158.038 209.384 158.227C209.393 158.384 211.524 157.658 214.93 155.639C218.244 153.684 221.837 151.033 220.63 150.404C218.603 151.351 214.215 155.328 213.34 155.174C209.8 154.916 217.83 150.242 231.043 141.794C243.759 133.71 259.369 123.819 260.31 122.271C258.605 122.481 256.919 122.679 255.231 122.878C259.026 120.83 262.979 118.681 266.867 116.584ZM64.5684 252.797C61.5328 247.042 62.9227 235.459 62.3194 230.671C61.4249 222.823 52.4409 217.108 61.4927 219.773C62.2729 225.653 62.2936 236.331 64.5684 252.797ZM289.205 327.748C284.385 328.84 285.024 324.045 288.671 322.793C289.486 322.47 290.356 322.209 291.269 322.038C291.986 321.914 298.847 323.85 290.838 327.27C290.379 327.441 289.838 327.602 289.205 327.748ZM230.826 351.174C231.13 351.002 236.91 348.878 237.104 348.872C239.948 348.816 237.202 350.381 234.262 351.455C231.239 352.563 227.949 353.199 230.826 351.174ZM458.785 221.744C456.295 222.878 459.858 226.468 460.521 224.245C460.572 224.1 458.956 221.671 458.785 221.744ZM456.886 222.307C453.265 219.235 451.187 229.229 454.918 226.736C455.298 226.475 457.057 222.446 456.886 222.307ZM270.459 334.437C270.343 332.749 275.921 330.97 278.296 330.256C278.85 331.594 272.574 333.259 270.459 334.437ZM397.081 257.813C396.638 256.59 381.855 266.094 381.693 268.179C383.71 266.021 397.538 258.818 397.081 257.813ZM432.37 234.957C431.929 234.941 427.423 237.789 428.086 238.684C431.063 238.664 434.357 234.991 432.37 234.957ZM387.729 171.777C387.8 171.567 389.882 172.017 390.927 171.356C391.454 171.039 391.689 170.373 391.461 169.615C391.225 168.843 390.626 168.207 389.522 168.514C389.206 168.64 388.566 168.645 388.046 168.928C387.518 169.182 387.164 169.853 387.013 169.776C386.418 169.455 386.166 169.365 386.111 169.315C385.993 169.443 385.954 169.823 386.042 170.48C386.15 171.204 386.415 172.276 386.83 173.509C387.602 175.952 389.604 179.946 390.119 180.416C392.753 183.146 390.971 179.479 389.692 176.491C388.31 173.277 387.732 171.916 387.729 171.777ZM394.844 197.114C396.045 198.022 395.828 204.768 395.445 206.371C395.372 206.648 392.319 205.63 392.716 208.731C393.04 211.238 395.893 207.316 395.673 212.239C395.458 217.273 392.908 210.702 392.777 211.161C392.602 211.706 394.411 219.487 392.62 219.355C391.288 219.216 391.717 210.786 391.327 208.823C390.824 206.267 388.802 209.485 389.034 205.205C389.178 202.55 393.123 203.793 393.286 203.226C393.42 202.697 390.652 193.853 394.832 197.129C394.836 197.124 394.84 197.119 394.844 197.114ZM386.275 169.266C386.143 169.275 386.073 169.281 386.111 169.315C386.154 169.268 386.214 169.255 386.275 169.266ZM78.1234 296.762C80.2835 302.392 76.6425 297.218 73.3523 289.807C69.972 282.277 67.7446 273.515 67.6614 269.217C68.2801 269.021 69.6665 274.407 71.9621 281.153C74.1073 287.735 77.7843 295.936 78.1234 296.762ZM389.57 169.742C389.345 171.321 388.833 171.892 388.178 171.28C387.54 170.775 386.735 169.341 386.275 169.266C387.026 169.308 389.728 168.778 389.57 169.742ZM338.831 292.658C339.279 292.71 339.709 292.967 340.136 293.57C338.929 293.392 338.625 293.072 338.831 292.658ZM355.401 283.368C359.474 277.994 348.76 285.152 349.643 286.497C350.035 286.968 355.246 283.578 355.401 283.368ZM461.476 221.099C461.368 221.015 461.44 219.168 461.285 218.083C461.068 217.026 461.019 216.54 459.339 219.762C462.09 219.723 459.726 221.249 459.905 221.825C460.231 222.617 461.418 222.243 462.132 221.937C462.934 221.605 463.018 221.374 462.985 221.755C462.624 220.267 462.805 220.151 462.607 220.418C462.456 220.672 461.838 221.368 461.48 221.098C461.479 221.098 461.477 221.099 461.476 221.099ZM403.954 301.694C401.591 299.606 400.498 291.542 399.843 286.894C401.966 288.754 402.761 296.254 403.954 301.694ZM1051.96 242.76C1040.99 254.984 1033.97 251.882 1047.53 243.011C1047.81 242.826 1052.21 241.552 1051.96 242.76ZM873.111 388.513C868.754 386.666 879.547 382.41 886.907 380.578C888.581 380.19 895.762 380.507 889.31 384.061C887.919 380.504 877.251 383.375 873.111 388.513ZM391.896 171.411C394.18 172.237 393.249 177.158 393.194 180.163C391.295 178.465 391.498 173.123 391.896 171.411ZM1003.67 288.02C1001.79 289.764 1002.67 292.925 1003.14 292.745C1005.28 291.947 1006.78 286.904 1003.67 288.02ZM396.334 179.05C397.053 179.144 394.624 173.151 393.973 170.895C393.144 168.428 392.642 168.116 391.09 168.438C391.256 168.584 391.404 169.471 392.347 171.866C393.212 174.234 395.795 178.987 396.334 179.05ZM402.804 291.667C402.99 289.343 406.335 300.33 406.798 304.459C405.264 304.189 402.582 293.114 402.804 291.667ZM973.638 321.382C971.557 323.123 966.51 327.853 966.677 329.214C966.974 330.89 974.029 323.471 973.638 321.382ZM1221.88 306.366C1221.91 306.951 1212.13 306.1 1209.12 303.533C1203.33 298.635 1221.49 305.804 1221.88 306.366ZM1017.92 269.926C1024.2 266.903 1017.51 270.501 1019.75 272.159C1022.79 268.909 1029.87 261.43 1023.04 264.834C1021.7 265.505 1019.42 268.522 1017.92 269.926ZM1013.16 273.839C1013.36 274.967 1012.22 280.494 1014.87 277.216C1016.09 275.704 1015.8 271.308 1013.16 273.839ZM1173.65 283.253C1169.27 278.265 1193.81 292.224 1194.42 293.031C1194.71 293.432 1194.86 293.752 1194.93 293.988C1196.21 293.772 1201.07 296.093 1200.78 298.152C1199.34 297.237 1195.37 295.406 1195.01 294.976C1194.85 294.793 1194.75 294.64 1194.69 294.509C1192.12 295.113 1174.42 284.153 1173.65 283.253ZM1133.63 260.511C1141.36 260.242 1139.77 266.333 1139.14 266.245C1131.33 265.228 1137.7 263.287 1137.58 262.994C1137.27 262.444 1131.6 262.029 1133.65 260.521C1133.64 260.518 1133.63 260.514 1133.63 260.511ZM1165.62 278.057C1165.92 278.116 1171.03 280.91 1171.23 281.121C1174.58 285.134 1160.02 277.19 1165.62 278.057ZM401.356 234.927C401.056 239.625 398.483 235.178 399.106 232.093C399.172 231.841 401.633 230.836 401.356 234.927ZM1011.4 276.724C1010.67 276.917 991.86 295.539 995.266 296.8C996.917 294.469 1017.63 273.845 1011.4 276.724ZM746.333 262.054C745.023 267.585 743.266 260.79 745.161 258.16C745.86 257.186 746.658 260.68 746.333 262.054ZM454.444 213.861C456.925 214.935 457.387 213.83 457.325 212.832C457.15 211.809 456.543 210.874 454.254 211.699C454.071 211.762 454.243 213.775 454.444 213.861ZM846.275 393.406C846.097 393.461 845.92 393.514 845.744 393.566C835.627 395.895 822.651 396.806 809.083 394.04C793.735 391.172 777.634 382.405 767.671 372.943C749.243 355.479 745.303 339.689 743.509 334.305C739.934 320.809 741.051 317.151 741.637 317.08C742.623 317.336 743.1 321.276 747.867 334.26C750.539 340.243 754.905 354.719 773.409 370.844C783.063 379.273 798.399 386.666 811.638 388.81C823.874 391.032 835.418 390.155 844.558 388.122C848.243 387.254 852.641 386.4 857.748 385.553C856.94 386.255 856.122 386.954 855.295 387.648C890.507 378.255 857.976 388.215 849.389 390.476C846.112 391.464 849.297 392.486 846.301 393.413C846.293 393.411 846.284 393.408 846.275 393.406ZM753.505 235.708C764.905 222.409 751.932 249.889 750.454 260.621C749.849 250.464 753.409 239.183 746.254 254.245C751.75 231.202 752.033 241.711 752.495 240.771C753.058 239.75 753.014 236.291 753.505 235.708ZM742.116 285.353C742.177 286.744 738.714 299.45 740.187 312.978C736.026 293.676 742.462 275.108 742.116 285.353ZM1090.74 242.417C1091.97 240.836 1093.64 239.991 1097.67 242.591C1095.94 242.883 1092.84 242.426 1090.74 242.417ZM74.0657 242.62C73.86 236.24 74.681 227.412 72.6224 230.173C72.3905 230.075 72.817 242.245 74.0657 242.62ZM951.265 336.264C950.723 336.785 929.438 353.147 938.08 349.165C941.065 348.019 959.023 332.468 951.265 336.264ZM1026.87 257.729C1025.91 258.712 1022.21 263.259 1022.45 263.681C1023.37 265.021 1027.58 259.185 1026.87 257.729ZM75.8582 220.359C75.9613 220.162 75.9324 217.886 75.7242 216.923C75.6224 216.43 75.4834 216.225 75.322 216.258C75.1598 216.281 74.9704 216.427 74.7308 216.381C74.2788 216.317 74.0796 216.243 74.0541 216.484C74.0281 216.719 74.1688 217.225 74.3797 217.913C74.8022 219.244 75.5056 221.042 75.8582 220.359ZM407.199 251.851C407.357 252.846 405.381 254.435 405.391 254.797C405.326 255.465 408.41 275.308 404.835 267.994C403.988 266.252 402.651 239.018 402.846 235.996C405.641 234.492 403.657 245.7 404.212 248.55C404.31 249.036 406.748 249.147 407.186 251.843C407.19 251.846 407.194 251.848 407.199 251.851ZM1114.08 250.776C1115.45 249.347 1132.63 256.192 1131.48 258.142C1125.65 255.631 1119.84 253.166 1114.08 250.776ZM1105.85 246.622C1102.9 243.837 1111.25 247.19 1113.48 248.876C1112.97 250 1106.26 247.015 1105.85 246.622ZM998.494 278.861C997.512 280.639 1003.57 277.885 1003.05 279.25C1002.73 280.105 999.013 282.755 998.674 284.394C998.605 284.873 1003.54 283.141 1004.32 282.101C1005.44 280.626 1002.77 280.636 1004.09 279.129C1008.48 274.14 1013.3 270.861 1017.13 266.573C1017.47 266.181 1013.73 268.233 1016.72 264.957C1017.17 264.453 1021.48 262.809 1024.66 258.938C1027.47 246.468 1037.38 245.329 1044.39 235.921C1043.71 235.655 1035.98 240.581 1035.5 241.012C1027.3 247.254 1012.81 262.92 1003.45 273.499C1001.07 276.163 1003.25 275.781 1002.25 276.97C1001.46 277.917 1000.56 275.118 998.494 278.861ZM75.6563 245.811C77.9166 242.453 76.07 233.219 76.2633 228.843C73.9659 230.271 75.725 238.907 75.6563 245.811ZM1046.49 221.308C1046.64 221.374 1046.99 221.285 1048.54 221.305C1049.98 221.328 1052.46 221.289 1053.14 221.63C1053.5 221.863 1052.49 222.142 1051.47 222.322C1050.44 222.506 1049.21 222.59 1048.34 222.565C1046.56 222.503 1046.42 222.16 1046.49 221.308ZM549.137 384.718C549.318 384.629 551.87 383.873 554.255 383.088C556.458 382.375 558.584 381.63 558.752 381.61C562.707 381.169 558.717 383.22 554.268 384.648C549.434 386.216 544.305 387.028 549.137 384.718ZM667.769 307.185C670.332 304.469 672.535 301.397 674.844 302.078C672.888 303.441 668.432 308.521 667.769 307.185ZM777.896 200.519C775.554 199.034 783.799 193.434 785.336 192.3C785.65 193.65 779.639 201.522 777.896 200.519ZM1093.52 234.398C1098.75 236.87 1099.35 232.679 1101.97 235.878C1102.39 236.414 1100.71 244.963 1096.14 239.435C1095.32 238.449 1100.25 238.41 1093.52 234.398ZM862.69 384.183C864.591 381.759 872.074 379.831 877.056 378.014C876.453 379.732 866.289 383.022 862.69 384.183ZM81.0323 229.097C82.6954 231.347 84.6974 236.886 92.2907 246.295C99.5805 256.085 117.108 267.284 129.156 269.753C142.274 272.859 147.654 272.002 151.25 272.188C154.076 272.237 154.794 272.544 152.14 273.311C151.621 272.574 140.979 278.087 114.094 265.92C101.452 259.701 91.2509 248.251 87.2931 241.63C82.7611 234.339 81.796 230.83 81.0323 229.097ZM401.21 181.806C403.582 186.301 403.37 176.441 401.122 174.243C401.401 175.377 401.058 181.412 401.21 181.806ZM751.717 224.356C751.861 224.098 756.204 220.049 756.45 219.942C761.357 217.983 749.069 229.453 751.717 224.356ZM635.611 330.4C636.505 327.64 649.537 318.46 653.19 317.406C652.327 321.415 634.565 333.949 635.611 330.4ZM1071.76 226.578C1075.33 227.884 1078.64 229.773 1081.76 231.841C1080.47 232.767 1071.7 227.628 1071.76 226.578ZM767.037 208.91C767.271 208.694 767.6 208.588 767.827 208.387C767.561 208.568 767.294 208.738 767.037 208.91ZM1051.91 225.792C1049.58 226.896 1051.55 228.571 1051.71 228.533C1053.69 228.017 1054.51 224.596 1051.91 225.792ZM79.0447 238.447C81.2081 236.198 79.4219 227.502 80.0246 224.034C78.221 224.807 78.6273 233.585 79.0447 238.447ZM762.659 220.912C766.412 216.881 763.496 236.869 760.777 240.808C759.201 240.661 762.162 221.322 762.659 220.912ZM403.192 168.94C404.053 168.682 403.792 167.597 403.229 166.857C402.67 166.136 401.863 165.959 401.497 166.256C401.009 166.439 402.113 169.12 403.192 168.94ZM756.912 250.964C756.887 253.14 753.975 257.438 753.366 255.505C752.586 253.009 756.903 250.392 756.912 250.964ZM977.191 299.864C976.449 300.302 969.117 310.49 973.998 308.067C977.405 306.366 975.914 304.191 976.484 303.587C977.222 302.888 992.6 290.997 977.191 299.864ZM785.245 142.59C785.756 139.291 785.159 140.314 784.983 141.889C784.48 141.476 784.223 140.408 784.186 140.382C784.172 140.365 784.226 140.637 784.394 141.091C784.561 141.585 784.855 142.274 785.245 142.59ZM405.975 193.62C406.704 192.115 405.222 169.895 404.11 182.628C404.071 183.182 403.987 196.406 405.975 193.62ZM1093.52 234.398C1092.86 234.088 1092.15 233.682 1091.3 233.124C1092.18 233.581 1092.89 234.021 1093.52 234.398ZM1047.67 217.015C1047.58 216.345 1047.73 215.988 1049.32 215.913C1050.16 215.866 1051.11 215.882 1052.9 215.854C1054.61 215.831 1056.72 215.717 1058.22 215.66C1059.34 216.331 1053.39 217.405 1050.99 217.357C1048.4 217.4 1047.68 217.093 1047.67 217.015ZM786.763 142.226C787.405 143.201 786.253 145.629 785.992 147.537C785.433 147.246 785.357 145.882 785.544 144.567C785.73 143.275 786.129 142.382 786.763 142.226ZM786.635 183.362C790.483 180.679 794.003 176.96 793.133 175.761C793.357 175.867 793.68 175.901 794.106 175.842C794.569 175.74 797.392 172.217 799.148 171.323C810.199 164.917 765.849 205.082 788.389 177.97C787.828 179.738 787.243 181.535 786.635 183.362ZM615.812 341.394C612.241 341.851 605.8 349.164 608.205 348.322C610.067 347.659 619.517 340.912 615.812 341.394ZM701.474 265.03C700.647 265.388 695.909 271.681 696.411 272.502C700.345 270.122 705.287 263.414 701.474 265.03ZM593.011 354.572C590.975 355.546 590.023 359.513 590.311 359.484C592.861 359.187 597.081 353.888 593.011 354.572ZM1085.63 222.543C1083.79 220.864 1076.28 220.083 1074.22 221.338C1074.08 220.888 1073.59 220.177 1072.47 219.124C1072.47 219.125 1072.47 219.127 1072.48 219.128C1071.76 218.396 1057.93 212.785 1051.89 211.479C1048.77 210.744 1048.12 210.923 1048.09 211.338C1048.16 211.845 1047.67 212.098 1054.32 214.971C1055.17 215.355 1054.45 213.314 1058.07 214.784C1058.32 214.888 1058.01 216.256 1058.79 216.587C1060.48 217.229 1070.88 221.972 1073.68 221.913C1073.6 222.162 1073.66 222.448 1073.88 222.78C1075.85 225.693 1086.99 223.795 1085.63 222.543ZM712.281 254.172C710.817 254.88 707.643 258.66 708.135 259.902C710.316 258.63 715.694 252.527 712.281 254.172ZM410.98 192.519C411.815 189.53 409.399 182.849 408.55 184.997C408.046 186.268 410.032 195.833 410.98 192.519ZM676.714 289.026C691.321 277.414 679.883 285.918 680.731 282.653C679.398 284.78 678.059 286.905 676.714 289.026ZM1153.67 259.334C1151.4 257.745 1155.88 255.973 1157.71 259.048C1158.28 260.019 1154.94 260.216 1153.67 259.334ZM1329.09 288.048C1325.41 286.237 1337.89 282.647 1334.23 286.686C1334.06 286.848 1329.32 288.081 1329.09 288.048ZM1188.27 274.053C1185.64 275.135 1184.31 274.748 1179.9 271.913C1187.13 274.897 1181.54 269.922 1188.27 274.053ZM792.94 175.623C793.02 175.668 793.082 175.699 793.133 175.761C793.056 175.724 792.995 175.678 792.94 175.623ZM573.02 366.641C569.256 366.587 560.137 370.761 563.611 371.231C564.184 371.222 572.378 368.536 573.02 366.641ZM1074.22 221.338C1074.33 221.734 1074.13 221.884 1073.68 221.913C1073.75 221.679 1073.93 221.503 1074.22 221.338ZM609.781 342.056C610.37 343.353 619.659 337.129 619.913 336.691C623.558 330.928 613.459 339.363 609.781 342.056ZM453.685 197.933C453.88 198.03 453.247 198.804 452.16 199.32C443.247 198.722 431.023 193.4 426.485 188.798C423.601 185.991 425.472 186.983 429.923 189.459C434.422 192.038 443.73 196.228 452.48 197.647C452.966 197.693 453.38 197.781 453.685 197.933ZM1204.85 281.523C1207.51 282.885 1211.33 284.827 1211.22 286.648C1209.63 285.551 1204.16 282.547 1204.85 281.523ZM1323.45 288.026C1320.58 291.427 1312.01 295.074 1305.07 297.286C1304.52 294.844 1320.52 290.063 1323.45 288.026ZM1092.01 226.299C1091.82 226.095 1085.93 222.756 1086.09 224.708C1086.34 227.56 1093.39 227.916 1092.01 226.299ZM408.496 165.565C408.571 164.919 408.993 164.741 409.486 164.735C409.999 164.77 410.544 164.895 411.282 165.734C412.018 166.547 412.833 167.827 414.037 169.986C415.362 172.358 417.205 175.558 419.212 178.869C421.721 182.679 414.617 176.005 411.9 171.635C409.103 167.498 408.477 165.689 408.496 165.565ZM539.482 376.802C530.241 380.181 554.41 375.755 555.243 372.939C552.117 374.045 542.709 375.75 539.482 376.802ZM688.941 270.537C674.851 276.704 687.108 278.206 688.409 275.825C688.592 275.488 689.284 270.381 688.941 270.537ZM159.095 260.708C158.821 261.307 159.946 261.589 160.845 261.672C161.756 261.747 162.36 261.671 162.042 260.86C161.858 260.344 161.308 260.046 160.69 260.023C160.076 259.996 159.266 260.329 159.095 260.708ZM801.725 159.178C802.365 159.195 802.992 159.195 803.574 159.18C803.133 159.117 802.539 159.114 801.725 159.178ZM436.094 315.191C436.036 325.432 438.71 330.972 440.491 333.126C442.338 335.329 443.513 334.49 444.091 335.462C446.58 339.562 452.632 352.696 466.791 362.132C450.954 351.96 442.786 340.362 437.329 332.267C438.398 334.318 441.091 340.964 449.54 351.206C457.653 361.578 477.886 377.077 500.775 379.956C523.27 383.041 534.848 379.048 535.644 378.703C537.598 376.982 515.8 380.449 513.667 379.679C512.481 379.482 508.398 374.637 505.938 374.215C505.438 374.135 503.946 373.982 501.634 373.638C488.12 373.484 458.261 356.987 449.503 342.112C439.184 327.681 436.982 318.429 436.094 315.191ZM667.189 291.96C669.323 290.774 671.09 291.696 671.603 290.617C671.775 290.251 670.621 288.882 671.237 287.686C669.904 289.102 668.54 290.54 667.189 291.96ZM422.255 290.126C423.505 285.745 426.565 303.506 426.833 304.578C426.217 308.216 420.908 293.364 422.255 290.126ZM604.162 344.105C603.683 344.345 593.509 350.367 594.094 351.372C597.686 350.266 610.424 341.672 604.162 344.105ZM672.306 286.534C675.033 284.307 681.135 281.068 678.734 279.623C678.731 279.627 678.727 279.63 678.723 279.634C676.59 281.942 674.451 284.243 672.306 286.534ZM413.813 164.158C415.66 162.457 415.34 162.409 414.415 162.795C413.498 163.245 411.965 164.132 411.538 165.677C413.591 166.236 413.21 164.686 413.813 164.158ZM426.012 176.101C427.816 177.042 434.135 186.148 453.83 190.568C458.964 191.476 458.293 191.862 458.505 193.567C458.531 193.964 458.337 193.707 457.215 193.29C456.18 192.898 454.012 192.1 453.81 192.125C453.311 192.216 454.569 193.965 453.137 194.199C449.267 193.596 441.955 191.946 433.74 186.735C434.861 186.93 431.14 183.727 428.79 180.738C426.346 177.744 425.008 175.217 426.012 176.101ZM416.13 161.901C417.545 160.889 417.058 161.7 416.11 162.286C415.179 162.941 413.526 162.816 413.42 162.486C413.348 162.265 415.722 162.203 416.13 161.901ZM417.817 177.585C418.219 175.683 418.534 170.754 416.159 168.352C416.506 172.024 416.799 176.49 417.027 181.221C418.202 181.664 417.476 179.276 417.816 177.573C417.816 177.577 417.817 177.581 417.817 177.585ZM1352.6 257.545C1350.1 257.79 1351.22 256.603 1353.09 255.352C1354.78 254.16 1357.73 252.823 1354.84 254.271C1353.8 254.938 1349.3 256.48 1351.2 256.079C1351.95 255.944 1353.35 255.566 1354.3 255.294C1354.54 255.225 1354.76 255.16 1354.97 255.101C1355.13 255.058 1355.18 255.062 1355.28 255.042C1355.46 255.012 1355.63 254.984 1355.79 254.961C1356.43 254.863 1356.68 254.904 1356.69 255.042C1356.74 255.163 1356.56 255.378 1356.39 255.567C1355.52 256.421 1353.77 257.409 1352.6 257.545ZM98.0278 234.689C96.5262 234.837 94.544 233.444 92.6622 236.03C96.0809 235.814 99.5035 235.597 102.957 235.362C102.898 230.915 99.6692 234.535 98.0278 234.689ZM80.8861 229.197C81.2012 228.888 76.0947 225.237 82.8415 225.551C87.3902 225.766 71.7192 238.77 67.2281 238.58C69.9819 235.398 78.1915 231.796 80.8861 229.197ZM37.3766 227.097C36.9668 226.805 43.0812 222.07 44.0104 221.866C48.9112 220.775 39.8062 228.484 37.3766 227.097ZM58.7345 214.749C55.0992 215.726 61.414 210.836 63.8001 210.089C64.5848 210.873 59.2735 214.6 58.7345 214.749ZM1273.06 201.013C1268.51 198.545 1268.78 207.519 1272.95 204.107C1273.15 203.943 1273.27 201.136 1273.06 201.013ZM40.5931 218.053C44.2288 217.067 37.899 221.986 35.4973 222.76C34.7314 221.964 40.0181 218.224 40.5931 218.053ZM1267.51 193.056C1262.8 191.776 1267.4 200.241 1267.97 200.45C1270.38 201.243 1276.55 194.698 1277.75 193.145C1267 199.154 1269.91 193.529 1267.51 193.056ZM1275.38 201.188C1272.09 200.366 1276.29 203.823 1279.8 205.129C1274.21 202.421 1270.18 202.153 1268.79 201.939C1267 201.732 1265.75 201.712 1265.16 201.641C1263.88 201.515 1263.38 201.329 1263.14 200.982C1263.4 200.968 1264.01 200.847 1265.42 200.751C1267.42 201.02 1269.2 199.272 1280.41 203.875C1278.58 202.815 1276.07 201.329 1275.38 201.188ZM1251.1 185.453C1248.91 183.951 1242.5 179.757 1240.6 180.48C1243.31 181.552 1249.41 186.324 1251.1 185.453ZM1247.91 178.769C1245.26 175.123 1241.69 179.98 1246.63 180.514C1246.83 180.534 1247.99 178.937 1247.91 178.769ZM1228.5 166.489C1227.15 163.151 1221.88 166.951 1225.64 169.023C1226.79 169.644 1228.64 166.861 1228.5 166.489ZM1259.93 184.857C1259.39 184.768 1259.05 184.941 1258.92 185.241C1258.8 185.538 1258.92 185.954 1259.07 186.411C1259.24 186.866 1259.32 187.387 1259.42 187.811C1259.53 188.229 1259.79 188.528 1260.76 188.337C1260.21 188.845 1259.76 189.297 1259.89 189.589C1259.96 189.733 1260.15 189.842 1260.76 189.887C1261.33 189.95 1262.36 189.902 1264.51 189.925C1262.55 190.192 1261.6 190.487 1261.14 190.648C1260.63 190.824 1260.41 190.937 1260.33 190.989C1260.14 191.099 1260.33 191.022 1260.49 190.866C1260.89 190.536 1261.24 189.906 1261.47 189.245C1261.93 187.919 1261.81 186.507 1262.82 186.269C1265.78 185.535 1267.37 189.961 1267.24 191.603C1268.59 188.073 1280.77 182.875 1287.99 178.904C1281.02 180.785 1269.77 183.397 1264.33 184.601C1262.75 184.962 1261.86 186.656 1260.89 186.828C1259.4 187.066 1260.06 184.889 1259.94 184.855C1259.93 184.856 1259.93 184.857 1259.93 184.857ZM1201.44 152.858C1195.51 146.952 1197.46 154.357 1201.93 155.414C1202.14 155.428 1201.58 153.002 1201.44 152.858ZM22.2181 208.955C32.5313 205.193 27.7768 212.039 43.6193 196.141C37.761 203.969 44.5098 198.513 43.7587 200.642C43.1594 202.329 38.1307 204.461 41.938 204.658C39.5404 204.759 34.704 207.331 30.2745 209.958C28.0583 211.272 25.9895 212.57 24.3048 213.626C23.4775 214.145 22.7719 214.586 22.1092 214.993C21.3229 215.495 21.3021 215.417 19.2339 216.848C19.4659 216.677 19.6431 216.549 19.7945 216.441C19.1363 216.918 18.4274 217.287 15.927 219.394C14.6442 220.545 12.7711 222.065 9.68395 226.043C6.73128 229.641 1.99688 238.47 0.962914 246.776C0.385448 250.681 0.472122 253.338 0.431202 253.268C0.425816 253.288 0.295109 250.577 0.846748 246.618C1.83162 238.201 6.55583 229.314 9.46165 225.656C15.5187 218.017 16.8822 217.807 18.0379 216.531C18.5646 216.047 18.9012 215.72 19.1686 215.443C19.2018 215.408 19.2337 215.375 19.2646 215.342C19.2768 215.322 19.281 215.309 19.2892 215.292C19.304 215.26 19.3186 215.227 19.3331 215.195C19.362 215.13 19.3902 215.066 19.4176 215.001C19.5272 214.744 19.6215 214.492 19.7056 214.243C19.9198 213.715 19.897 213.333 19.9619 212.902C20.1571 211.223 20.5266 209.592 22.2181 208.955ZM1257.95 171.953C1258.83 164.518 1252.81 173.958 1250.93 166.466C1241.02 170.897 1267.71 175.037 1267.13 182.744C1242.85 169.448 1280.13 197.294 1267.84 179.05C1280.13 189.636 1273.04 180.203 1275.82 180.087C1278.82 179.987 1285.68 185.178 1286.5 182.654C1286.5 182.652 1286.49 182.65 1286.49 182.648C1281.89 180.58 1276.82 178.22 1272 175.976C1274.17 183.41 1265.06 176.881 1263.69 171.018C1261.7 171.293 1259.89 171.655 1257.95 171.953ZM1282.89 190.508C1282.51 190.195 1271.85 185.728 1271.94 187.032C1273.09 188.452 1288.02 194.894 1282.89 190.508ZM1289.86 174.242C1286.12 175.964 1280.03 177.502 1278.93 180.304C1282.54 178.737 1288.72 177.12 1289.86 174.242ZM1128.13 113.854C1122.02 113.194 1138.57 120.685 1134.54 116.752C1134.39 116.576 1128.42 113.877 1128.13 113.854ZM1246.24 167.173C1242.27 162.74 1241.48 170.006 1246.01 170.317C1246.28 170.335 1246.43 167.38 1246.24 167.173ZM29.0353 203.581C28.4575 201.957 41.8969 194.761 44.1698 193.299C43.7144 195.43 29.7138 205.419 29.0353 203.581ZM1293.76 165.505C1283.75 163.594 1276.95 174.267 1275.83 174.573C1274.72 174.89 1275.3 171.762 1275.03 171.802C1274.33 171.996 1263.73 176.712 1263.55 176.915C1263.26 177.183 1266.4 179.919 1264.79 181.806C1267.55 178.674 1289.03 170.453 1290.05 169.441C1290.77 168.743 1282.66 168.252 1293.75 165.511C1293.75 165.509 1293.76 165.507 1293.76 165.505ZM1272.89 174.974C1276.26 175.213 1268.61 178.723 1266.74 178.834C1262.35 179.246 1272.35 175.058 1272.89 174.974ZM1257.35 179.553C1257.3 179.506 1257.19 179.476 1257.17 179.432C1257.14 179.389 1257.23 179.32 1257.75 179.188C1258.41 179.048 1259.13 178.82 1262.29 178.539C1263.09 178.478 1263.84 178.432 1265.07 178.405C1266.38 178.378 1267.94 178.395 1269.81 178.531C1272.76 178.791 1280.45 179.366 1290.04 184.056C1288.92 183.741 1287.9 183.611 1287.47 183.976C1287.95 184.633 1288.57 185.21 1289.24 185.691C1282.25 182.371 1276.7 181.385 1272.94 180.902C1269.87 180.538 1267.58 180.512 1265.76 180.549C1262.48 180.645 1261.04 180.884 1259.99 180.992C1258.06 181.226 1257.8 181.156 1257.61 180.958C1257.47 180.758 1257.57 180.451 1257.57 180.181C1257.59 179.907 1257.52 179.679 1257.35 179.553ZM1201.06 139.503C1198.62 138.547 1192.75 134.221 1191.71 135.398C1194.17 136.339 1200.03 140.673 1201.06 139.503ZM65.6291 164.667C61.3876 165.864 69.3795 160.183 72.1222 159.162C72.8117 159.915 65.9965 164.562 65.6291 164.667ZM1251.95 153.901C1250.88 152.818 1222.55 139.773 1218.22 138.449C1221.65 141.388 1249.13 155.383 1250.58 155.517C1251.01 155.55 1252.09 154.051 1251.95 153.901ZM1257.93 168.332C1258.84 165.612 1261.16 167.543 1261.42 167.475C1263.96 166.838 1269.47 163.914 1269.07 166.412C1263.51 167.947 1255.94 173.797 1257.93 168.332ZM1203.46 129.491C1193.45 125.517 1210.95 136.679 1209.53 133.408C1209.44 133.207 1204.5 129.903 1203.46 129.491ZM1255.34 154.901C1258.2 154.343 1284.84 169.697 1288.72 171.582C1283.46 172.654 1281.48 168.842 1276.33 166.414C1274.9 165.74 1274.64 167.156 1274.49 167.081C1271.98 165.872 1274.52 165.386 1273.06 164.615C1272.23 164.181 1251.32 155.689 1255.34 154.901ZM1258.37 166.514C1258.54 165.217 1273.29 158.28 1274.24 158.149C1279.87 158.442 1258.75 167.064 1258.37 166.514ZM1254.12 150.978C1258.91 149.099 1271.32 158.329 1261.09 155.259C1260.15 154.977 1257.15 151.572 1254.12 150.978ZM1206.1 126.707C1205.68 126.364 1195.91 120.763 1195.18 121.779C1196.46 122.908 1210.97 130.471 1206.1 126.707ZM1213.14 125.554C1212.89 125.461 1214.2 128.733 1209.62 126.15C1209.24 125.934 1209.68 123.183 1203.29 121.152C1202 120.742 1199.35 121.409 1199.44 121.573C1203.85 128.311 1225.9 130.331 1213.14 125.554ZM1257.82 164.423C1256.77 163.629 1257.09 159.95 1259.29 160.87C1260.26 161.257 1259.67 163.662 1257.82 164.423ZM1174.15 110.256C1181.08 111.233 1162.13 102.081 1160.9 102.144C1161.01 103.547 1173.49 110.149 1174.15 110.256ZM65.6687 146.227C65.6644 146.23 65.6602 146.232 65.656 146.235C70.4145 143.76 68.5114 146.95 68.7577 146.857C79.6362 142.88 75.0985 141.262 76.3438 139.943C77.9673 138.219 79.3365 139.097 81.1535 138.915C82.8756 138.456 84.9435 137.442 88.0995 134.741C86.7299 135.607 82.5398 138.075 81.1702 138.941C82.6812 141.33 82.0478 140.328 82.9257 141.716C84.0977 140.975 87.6735 138.848 88.8454 138.106C90.7461 139.956 88.1984 141.582 83.9931 143.404C79.4229 144.929 71.5526 145.833 69.2737 148.307C68.7516 148.868 74.4809 147.771 73.2139 149.294C69.0893 154.238 47.4731 155.697 65.6687 146.227ZM1260.4 160.1C1261.11 157.773 1276.93 152.811 1273.63 156.055C1272.87 156.755 1258.63 163.998 1260.4 160.1ZM693.759 65.7872C696.361 61.0687 686.262 67.6643 685.779 69.9739C685.484 71.1534 692.525 67.9284 693.759 65.7872ZM634.235 113.589C630.732 117.561 631.783 126.531 635.674 121.11C636.086 120.531 635.35 113.87 634.235 113.589ZM907.608 287.04C911.376 282.939 906.772 281.905 905.841 285.5C905.522 286.743 907.49 287.164 907.608 287.04ZM797.538 9.71425C795.337 9.15439 775.192 12.4936 776.553 13.6736C782.818 12.0535 809.69 10.4252 797.538 9.71425ZM907.853 288.691C907.791 285.693 903.158 289.661 905.564 293.702C905.7 292.061 907.869 288.955 907.853 288.691ZM1248.48 136.417C1245.09 136.867 1238.26 132.763 1233.96 130.974C1234.66 128.517 1245.36 135.338 1248.48 136.417ZM652.432 99.5367C650.057 104.379 658.844 97.7133 656.518 96.7294C656.319 96.7464 652.503 99.3595 652.432 99.5367ZM872.083 186.162C870.926 189.661 879.61 183.092 875.678 183.509C875.493 183.557 872.138 185.981 872.083 186.162ZM907.438 148.275C904.847 150.269 896.279 159.92 900.739 157.189C901.388 156.788 908.237 149.404 907.438 148.275ZM75.6412 138.25C74.104 137.445 76.0503 135.718 78.2517 134.327C80.8355 132.689 83.5564 131.323 84.4031 131.046C84.8577 130.904 82.5305 134.094 79.7473 136.692C78.5711 138.052 77.1082 139.015 75.6412 138.25ZM917.625 254.059C918.142 251.196 920.894 244.069 919.985 242.363C919.217 245.966 914.77 254.208 917.625 254.059ZM669.35 82.879C664.137 84.0401 658.696 89.7801 662.662 91.0143C668.649 84.7978 659.604 89.3874 669.35 82.879ZM907.316 303.268C907.826 301.922 904.706 299.845 904.498 300.004C902.539 301.454 905.69 304.34 907.316 303.268ZM905.401 60.2383C906.419 59.1439 900.916 54.9298 900.881 56.2189C900.967 56.7486 904.697 61.2501 905.401 60.2383ZM1157.36 91.6642C1154.5 88.9077 1165.47 92.2754 1167.75 95.0826C1168.29 97.8448 1157.74 91.9861 1157.36 91.6642ZM823.098 225.788C822.256 223.765 818.397 226.816 820.845 227.772C821.477 228.02 823.38 226.49 823.098 225.788ZM878.488 172.238C875.214 179.902 898.618 156.503 890.372 160.771C889.678 161.177 878.678 171.691 878.488 172.238ZM919.333 130.561C917.989 131.5 913.2 125.636 920.195 122.855C921.102 122.494 919.449 126.868 920.3 126.673C920.694 126.559 932.474 116.871 932.996 116.261C933.437 115.595 931.149 114.426 931.555 113.697C931.988 112.87 940.708 107.973 944.835 104.66C952.581 98.3976 952.416 96.1709 953.048 95.647C955 94.1448 959.159 92.794 963.326 89.8719C975.055 81.5573 991.751 70.9239 1008.99 63.8078C1029.42 55.4551 1040.87 55.8788 1049.77 55.6164C1057.73 55.6707 1063.98 56.5114 1068.57 57.3361C1078.23 59.1155 1084.09 61.2554 1088.65 63.3377C1082.52 61.2401 1075.51 59.4066 1065.42 58.2545C1054.29 58.1992 1045.14 53.0663 1010.04 66.2086C1004.11 69.1169 998.464 72.2334 992.761 75.4904C995.383 69.0363 970.669 91.9265 984.794 78.0751C974.937 82.3032 921.602 127.423 919.346 130.548C919.342 130.552 919.338 130.556 919.333 130.561ZM617.979 126.768C618.461 122.699 607.15 134.682 608.242 137.743C610.068 136.534 617.889 127.27 617.979 126.768ZM669.872 66.8221C670.737 65.3915 668.49 60.5763 676.834 56.2185C676.84 56.213 676.846 56.2073 676.852 56.2017C679.275 54.9497 677.922 57.8816 678.57 57.8703C678.707 57.9751 686.817 53.841 681.799 59.0479C674.668 66.5757 678.552 56.9827 674.464 60.7622C673.882 61.2896 668.327 70.3501 669.191 70.3549C669.284 70.3598 671.096 67.8248 671.629 67.6583C673.641 67.0172 674.052 68.7852 674.296 68.654C675.01 68.1908 685.423 54.7481 689.005 54.6948C689.818 54.8196 671.111 74.8345 670.338 75.1517C669.695 75.4314 666.882 72.1235 666.095 72.2922C665.585 72.4799 659.365 80.8069 658.079 81.5195C657.715 81.7149 657.411 81.8388 657.181 81.9217C659.194 81.8202 652.55 88.2202 651.685 86.9534C651.394 86.4027 656.131 82.2221 656.399 82.1072C656.504 82.0662 656.61 82.0467 656.699 82.0179C654.571 81.7802 670.533 66.3681 665.431 67.9432C669.218 62.4501 667.243 71.146 669.872 66.8221ZM692.855 41.9958C692.57 42.8498 692.286 43.7044 692.005 44.5599C698.894 37.6176 706.383 31.6821 722.611 21.5399C728.494 18.0227 734.769 14.5272 742.574 10.7687C749.488 7.58865 740.114 8.67595 750.071 5.22426C758.339 2.37988 770.023 1.93582 764.95 3.97184C763.264 4.34252 745.384 9.13999 739.194 12.8606C729.495 18.1954 727.35 20.7053 726.489 21.9657C725.731 23.2324 726.841 23.2601 726.389 23.5828C726.179 23.7334 725.519 24.074 724.567 24.5599C720.645 26.5493 712.98 30.8473 710.104 33.2077C699.971 41.4719 697.567 45.5894 686.057 53.4186C690.656 47.1213 685.312 47.2903 692.855 41.9958ZM840.421 205.708C839.616 204.432 843.923 202.386 845.097 200.965C845.904 202.291 841.481 204.52 840.421 205.708ZM298.957 100.613C298.272 103.93 313.424 95.2572 308.44 95.9299C307.31 96.0817 300.802 99.4691 298.957 100.613ZM373.428 60.9846C375.704 59.1737 364.631 62.3489 365.547 64.0708C365.811 64.6031 373.04 61.2356 373.428 60.9846ZM953.343 146.275C953.468 147.778 952.025 159.18 951.804 159.349C950.097 162.678 950.679 156.035 951.291 149.211C951.903 141.978 952.652 135.407 953.343 146.275ZM570.614 145C568.922 139.321 569.341 145.498 569.887 150.815C570.443 156.142 571.272 161.143 571.825 156.538C571.916 156.11 570.86 145.815 570.614 145ZM574.799 183.93C574.602 181.992 574.774 173.015 573.992 172.826C572.793 172.877 572.674 183.103 574.799 183.93ZM916.256 306.069C917.669 306.104 917.543 307.518 917.253 308.392C917.111 308.803 916.929 309.067 916.842 308.936C916.754 308.806 916.743 308.36 916.885 307.694C916.204 307.472 915.783 307.871 915.546 308.227C915.313 308.552 915.266 308.828 915.348 308.728C915.433 308.618 915.635 308.261 915.843 307.722C916.05 307.181 916.248 306.533 916.256 306.069ZM934.094 250.099C923.691 292.869 920.573 282.446 933.568 247.099C935.295 247.549 934.78 247.294 934.094 250.099ZM919.318 300.455C917.882 298.82 919.337 295.271 920.254 292.449C921.297 293.307 919.415 298.671 919.318 300.455ZM279.72 108.339C280.906 104.876 293.504 100.139 292.03 102.183C291.645 102.646 279.453 109.973 279.72 108.339ZM955.26 154.358C956.699 153.362 956.603 159.845 955.85 165.277C955.115 170.84 953.755 176.061 953.341 176.684C951.633 179.309 952.302 175.369 953.329 169.405C954.34 163.821 955.503 155.469 955.26 154.358ZM817.785 214.377C817.589 212.129 820.175 212.014 821.716 211.116C821.94 213.112 818.922 213.894 817.785 214.377ZM807.955 216.151C808.029 216.06 809.843 215.782 809.943 215.845C812.023 217.437 806.653 218.286 807.955 216.151ZM48.5425 132.99C48.6567 132.836 52.6027 130.494 52.7729 130.481C57.2937 130.023 45.5179 136.998 48.5425 132.99Z" fill="#EBEBF5"/>
</svg>
