<svg width="617" height="376" viewBox="0 0 617 376" fill="none" xmlns="http://www.w3.org/2000/svg">
<g clip-path="url(#clip0_208_2)">
<path d="M617 353.904C617 354.406 615.999 354.808 614.752 354.808H136.248C135.001 354.808 134 354.406 134 353.904C134 353.403 135.001 353.001 136.248 353.001H614.752C615.999 353.001 617 353.403 617 353.904Z" fill="#D6D6E3"/>
<path d="M264.827 86.6867C283.316 86.6867 298.305 71.6715 298.305 53.1494C298.305 34.6272 283.316 19.6121 264.827 19.6121C246.338 19.6121 231.349 34.6272 231.349 53.1494C231.349 71.6715 246.338 86.6867 264.827 86.6867Z" fill="#ED9DA0"/>
<path d="M280.752 9.69841C288.126 12.2945 292.345 13.7806 296.209 17.5102C302.737 23.8111 303.817 32.2314 304.816 40.056C305.601 46.1766 306.612 54.0888 303.03 63.1321C301.809 66.2169 295.885 79.9649 284.549 81.7015C282.323 82.0426 277.096 82.1321 278.602 81.018C292.548 70.7056 298.499 64.481 298.01 48.587C297.708 38.7138 282.645 28.0494 273.702 26.1326C271.552 25.6928 269.334 25.7232 267.198 26.2217C265.061 26.7202 263.058 27.675 261.324 29.0208C253.807 35.2031 254.127 60.7677 246.2 66.1111C242.94 68.3092 245.113 52.8379 242.815 55.3445C238.283 60.2947 241.19 67.87 242.005 70.7619C245.869 84.4566 249.915 74.3306 253.684 86.0238C257.758 98.6492 229.587 112.279 228.371 115.098C226.258 120.002 248.911 138.143 240.618 142.177C230.092 147.301 221.794 140.628 216.902 146.351C214.167 149.546 215.646 152.935 210.705 162.883C209.092 166.13 208.281 167.754 207.571 167.696C204.19 167.424 198.722 140.331 207.571 115.1C211.284 104.511 214.921 94.1393 224.668 86.025C229.823 81.7359 234.147 80.1929 235.377 75.184C237.135 68.0267 229.835 64.9745 228.373 53.6854C227.373 45.9643 226.67 34.9219 229.394 27.8437C231.963 21.1594 234.194 15.3581 240.033 10.0976C241.434 8.83346 252.756 0.244384 264.759 0.00243869C270.285 -0.108856 274.346 7.43864 280.752 9.69418V9.69841Z" fill="#090814"/>
<path d="M511.338 351.445L421.065 351.004L412.095 329.928L443.812 327.621L438.284 304.515L501.018 296.37L440.946 275.449L446.252 274.186L542.847 289.973L537.526 326.033L529.923 345.852L511.338 351.445Z" fill="#6565C9"/>
<path d="M562.841 334.651C562.841 334.651 556.864 341.961 561.61 353.013L513.873 373.754L509.292 374.716L507.182 365.469L508.593 353.798V347.42L562.841 334.651Z" fill="#D5D6DB"/>
<path d="M412.095 329.927L478.167 317.86L565.716 331.833L511.338 351.445L412.095 329.927Z" fill="#6565C9"/>
<path d="M412.095 329.924C412.095 329.924 405.916 341.653 413.037 352.486L511.016 373.755C511.016 373.755 504.934 364.412 511.33 351.445L412.095 329.924Z" fill="#6565C9"/>
<path opacity="0.1" d="M412.095 329.924C412.095 329.924 405.916 341.653 413.037 352.486L511.016 373.755C511.016 373.755 504.934 364.412 511.33 351.445L412.095 329.924Z" fill="black"/>
<path d="M511.016 373.755L565.716 350.372C565.716 350.372 568.775 351.032 566.797 353.275C564.819 355.518 512.071 375.998 512.071 375.998L413.036 352.485L511.016 373.755Z" fill="#6565C9"/>
<path opacity="0.1" d="M511.016 373.755L565.716 350.372C565.716 350.372 568.775 351.032 566.797 353.275C564.819 355.518 512.071 375.998 512.071 375.998L413.036 352.485L511.016 373.755Z" fill="black"/>
<path opacity="0.1" d="M532.071 353.698L508.411 361.606L508.494 361.857L532.154 353.949L532.071 353.698Z" fill="black"/>
<path opacity="0.1" d="M536.808 352.912L508.402 363.733L508.495 363.98L536.902 353.159L536.808 352.912Z" fill="black"/>
<path opacity="0.1" d="M541.16 352.874L508.56 366.241L508.66 366.486L541.26 353.118L541.16 352.874Z" fill="black"/>
<path opacity="0.1" d="M545.893 351.73L508.941 368.452L509.049 368.693L546.002 351.971L545.893 351.73Z" fill="black"/>
<path opacity="0.1" d="M549.857 351.713L509.234 369.528L509.34 369.77L549.963 351.955L549.857 351.713Z" fill="black"/>
<path opacity="0.1" d="M558.568 350.255L509.848 371.335L509.952 371.577L558.673 350.497L558.568 350.255Z" fill="black"/>
<path d="M565.716 331.832C565.716 331.832 568.116 332.8 566.707 334.3C565.299 335.8 511.33 351.444 511.33 351.444L565.716 331.832Z" fill="#6565C9"/>
<path d="M589.028 309.239C589.028 309.239 583.051 316.547 587.799 327.602L540.062 348.343L535.481 349.31L533.371 340.063L534.803 328.396V322.009L589.028 309.239Z" fill="#D5D6DB"/>
<path d="M438.285 304.513L504.354 292.449L591.904 306.421L537.526 326.033L438.285 304.513Z" fill="#090814"/>
<path d="M438.274 304.513C438.274 304.513 432.092 316.241 439.213 327.074L537.192 348.343C537.192 348.343 531.113 338.993 537.516 326.031L438.274 304.513Z" fill="#3A3768"/>
<path d="M438.274 304.513C438.274 304.513 432.092 316.241 439.213 327.074L537.192 348.343C537.192 348.343 531.113 338.993 537.516 326.031L506.532 319.312L438.274 304.513Z" fill="#090814"/>
<path d="M537.203 348.343L591.907 324.96C591.907 324.96 594.964 325.62 592.985 327.863C591.006 330.106 538.258 350.585 538.258 350.585L439.224 327.073L537.203 348.343Z" fill="#3A3768"/>
<path d="M537.203 348.343L591.907 324.96C591.907 324.96 594.964 325.62 592.985 327.863C591.006 330.106 538.258 350.585 538.258 350.585L439.224 327.073L537.203 348.343Z" fill="#090814"/>
<path opacity="0.1" d="M532.719 328.395C532.719 328.395 527.445 334.736 532.719 344.248V328.395Z" fill="black"/>
<path opacity="0.1" d="M558.259 328.29L534.599 336.198L534.683 336.448L558.343 328.541L558.259 328.29Z" fill="black"/>
<path opacity="0.1" d="M563 327.503L534.594 338.324L534.688 338.571L563.094 327.75L563 327.503Z" fill="black"/>
<path opacity="0.1" d="M567.349 327.46L534.749 340.827L534.849 341.072L567.449 327.704L567.349 327.46Z" fill="black"/>
<path opacity="0.1" d="M572.085 326.317L535.133 343.039L535.241 343.279L572.194 326.557L572.085 326.317Z" fill="black"/>
<path opacity="0.1" d="M576.044 326.296L535.422 344.111L535.528 344.353L576.15 326.538L576.044 326.296Z" fill="black"/>
<path opacity="0.1" d="M584.757 324.838L536.037 345.918L536.142 346.161L584.862 325.081L584.757 324.838Z" fill="black"/>
<path d="M591.905 306.421C591.905 306.421 594.303 307.388 592.897 308.886C591.491 310.384 537.529 326.03 537.529 326.03L591.905 306.421Z" fill="#3A3768"/>
<path d="M591.507 280.168C591.507 280.168 585.53 293.294 590.276 304.344L542.538 319.273L537.967 320.241L535.858 310.993L537.269 299.323V292.938L591.507 280.168Z" fill="#D5D6DB"/>
<path d="M440.772 275.444L506.844 263.378L594.393 277.35L540.015 296.96L440.772 275.444Z" fill="#6565C9"/>
<path d="M440.772 275.442C440.772 275.442 434.582 287.17 441.703 298.003L539.682 319.272C539.682 319.272 533.6 309.922 540.004 296.962L440.772 275.442Z" fill="#6565C9"/>
<path opacity="0.1" d="M440.772 275.442C440.772 275.442 434.582 287.17 441.703 298.003L539.682 319.272C539.682 319.272 533.6 309.922 540.004 296.962L440.772 275.442Z" fill="black"/>
<path d="M539.693 319.272L594.392 301.702C594.392 301.702 597.452 302.362 595.474 304.605C593.496 306.848 540.747 321.514 540.747 321.514L441.713 298.003L539.693 319.272Z" fill="#6565C9"/>
<path opacity="0.1" d="M539.693 319.272L594.392 301.702C594.392 301.702 597.452 302.362 595.474 304.605C593.496 306.848 540.747 321.514 540.747 321.514L441.713 298.003L539.693 319.272Z" fill="black"/>
<path opacity="0.1" d="M560.75 299.218L537.09 307.126L537.173 307.377L560.833 299.469L560.75 299.218Z" fill="black"/>
<path opacity="0.1" d="M565.489 298.432L537.083 309.253L537.177 309.5L565.583 298.679L565.489 298.432Z" fill="black"/>
<path opacity="0.1" d="M569.835 298.391L537.235 311.759L537.335 312.003L569.935 298.636L569.835 298.391Z" fill="black"/>
<path opacity="0.1" d="M574.574 297.245L537.622 313.968L537.731 314.208L574.683 297.486L574.574 297.245Z" fill="black"/>
<path opacity="0.1" d="M578.535 297.227L537.913 315.042L538.018 315.284L578.641 297.469L578.535 297.227Z" fill="black"/>
<path opacity="0.1" d="M587.247 295.771L538.527 316.851L538.632 317.094L587.352 296.013L587.247 295.771Z" fill="black"/>
<path d="M594.392 277.349C594.392 277.349 596.792 278.317 595.384 279.817C593.975 281.317 540.016 296.961 540.016 296.961L594.392 277.349Z" fill="#6565C9"/>
<path opacity="0.1" d="M567.32 270.353C567.32 270.353 557.912 271.78 556.156 273.717L567.32 270.353Z" fill="black"/>
<path opacity="0.1" d="M544.699 279.635C545.651 278.919 546.664 278.289 547.727 277.751C549.269 276.917 550.766 276 552.211 275.006" fill="black"/>
<path d="M316.256 226.066C316.256 226.066 327.718 256.085 334.236 253.083C340.753 250.081 338.986 237.323 340.229 233.825C341.472 230.328 342.851 203.806 342.851 203.806C342.851 203.806 343.48 185.044 344.723 181.245C345.877 177.754 346.813 160.156 346.97 157.386V157.019L345.734 135.254L338.737 133.506L322.511 139.514L320.264 152.37L319.387 157.39L319.013 159.529L316.256 226.066Z" fill="#ED9DA0"/>
<path d="M226.62 227.379C226.62 227.379 215.157 257.399 208.64 254.397C202.123 251.395 203.891 238.637 202.647 235.139C201.403 231.642 200.025 205.12 200.025 205.12C200.025 205.12 199.395 186.358 198.153 182.558C196.999 179.068 196.063 161.47 195.906 158.7V158.332L197.149 136.568L204.147 134.819L220.374 140.823L222.621 153.679L223.498 158.699L223.872 160.838L226.62 227.379Z" fill="#ED9DA0"/>
<path d="M222.125 257.278C222.125 257.278 213.382 266.907 216.626 268.656C219.871 270.405 240.854 303.179 240.854 303.179C240.854 303.179 309.776 311.682 322.777 298.923C335.778 286.164 335.513 263.372 335.513 263.372C335.513 263.372 325.067 265.624 323.931 264.401C322.795 263.178 316.537 257.278 316.537 257.278C316.537 257.278 228.118 251.905 222.125 257.278Z" fill="#090814"/>
<path d="M346.201 135.572L323.727 153.584L316.932 154.079L314.437 154.26L272.534 157.337L229.085 154.154L222.62 153.681L214.379 153.08L197.149 136.567C197.149 136.567 209.345 123.479 220.028 114.645C224.238 111.155 228.216 108.334 231.116 107.223L231.61 107.051C233.433 106.338 251.294 104.473 252.594 103.005C261.03 94.2923 252.594 73.5188 252.594 73.5188C252.594 73.5188 289.805 54.2612 285.31 79.5227C280.815 104.784 293.365 101.046 293.884 101.285L309.033 101.738L311.797 103.008L318.846 106.243L334.751 113.552C347.235 119.309 346.201 135.572 346.201 135.572Z" fill="#ED9DA0"/>
<path opacity="0.1" d="M346.253 159.452H195.904V159.084L197.148 137.32C197.148 137.32 209.345 124.231 220.028 115.398L314.422 111.648L318.812 107.01L334.716 114.317C347.204 120.064 346.201 136.329 346.201 136.329C346.201 136.329 347.909 155.174 346.253 159.452Z" fill="black"/>
<path d="M346.253 158.701H195.904V158.333L197.148 136.569C197.148 136.569 209.345 123.481 220.028 114.647L314.422 110.897L318.812 106.259L334.716 113.567C347.204 119.313 346.201 135.578 346.201 135.578C346.201 135.578 347.909 154.424 346.253 158.701Z" fill="#D6D6E3"/>
<path d="M311.761 102.987L314.271 141.33L316.961 154.088L319.014 163.845C319.014 163.845 324.258 238.894 322.757 242.646C321.257 246.399 323.506 249.401 323.821 251.397C324.136 253.393 323.506 258.407 323.753 260.658C324 262.909 323.753 263.907 318.017 263.105C312.281 262.302 304.278 260.906 304.278 260.906C304.278 260.906 284.051 262.407 277.06 259.908C270.07 257.409 256.833 257.401 256.833 257.401C256.833 257.401 236.853 257.904 230.366 257.154C223.878 256.404 220.372 265.162 216.132 262.655C211.892 260.149 221.121 235.893 224.118 228.883C227.115 221.873 220.125 204.117 220.125 204.117L229.115 154.155L231.116 142.83V107.226L231.61 107.054C233.434 106.341 235.062 105.204 236.359 103.737L238.607 139.565L309.028 142.072V101.747" fill="#D6D6E3"/>
<path d="M304.061 354.512L333.78 355.465L329.517 333.388L306.75 335.557L304.061 354.512Z" fill="#ED9DA0"/>
<path d="M396.147 302.181C394.146 304.68 386.408 309.183 385.658 310.684C384.909 312.186 375.672 316.688 370.922 317.439C366.172 318.189 351.197 321.447 348.447 323.195C346.477 324.456 330.662 328.449 320.271 330.663C317.457 331.33 314.609 331.844 311.739 332.202C307.243 332.449 258.054 315.689 258.054 315.689L267.538 305.933L268.063 305.751C270.745 304.844 283.136 300.648 290.013 298.651C297.76 296.4 306.749 287.146 306.749 287.146C306.749 287.146 319.98 282.643 321.733 282.14C323.485 281.638 317.237 264.631 317.237 264.631C317.237 264.631 345.952 260.639 357.19 257.252C368.428 253.865 394.401 255.12 399.143 268.381C403.885 281.642 398.177 299.682 396.147 302.181Z" fill="#090814"/>
<path d="M265.289 344.456C265.289 344.456 259.553 350.46 253.805 349.964C248.056 349.469 227.966 351.465 227.966 351.465C224.325 352.92 220.915 354.9 217.845 357.342C213.147 361.049 201.865 359.217 201.865 359.217C201.865 359.217 204.36 335.204 203.596 332.199C202.832 329.195 208.533 324.042 208.533 324.042L215.276 322.324L232.356 317.941L256.832 326.444L265.289 344.456Z" fill="#090814"/>
<path opacity="0.1" d="M320.268 330.662C317.453 331.329 314.605 331.843 311.735 332.201C307.24 332.448 258.05 315.688 258.05 315.688L267.534 305.931L268.059 305.75C269.558 306.808 270.786 307.716 271.663 308.406C275.791 311.664 279.776 307.408 281.274 307.408C282.773 307.408 295.754 318.165 295.754 318.165C295.754 318.165 307.74 320.919 309.741 323.418C311.741 325.917 318.73 325.422 319.974 327.168C320.347 327.713 320.392 329.041 320.268 330.662Z" fill="black"/>
<path d="M227.969 265.655C227.969 265.655 215.847 266.353 208.857 263.403C201.867 260.454 178.644 253.647 171.901 258.428C165.159 263.208 148.924 267.433 156.416 286.451C163.907 305.469 167.405 305.964 167.405 305.964C169.723 307.706 171.746 309.809 173.398 312.194C175.645 315.699 196.622 323.699 201.866 323.699C207.11 323.699 216.347 323.699 229.33 332.705C242.313 341.711 254.054 342.714 254.054 342.714C254.054 342.714 270.538 349.469 275.67 350.969C280.802 352.47 304.25 358.969 309.749 356.973C315.248 354.977 318.739 342.457 318.739 342.457C318.739 342.457 321.234 331.199 319.983 329.452C318.732 327.705 311.742 328.199 309.749 325.702C307.756 323.205 295.762 320.449 295.762 320.449C295.762 320.449 282.809 309.687 281.311 309.687C279.813 309.687 275.827 313.935 271.699 310.685C263.477 304.583 254.838 299.065 245.846 294.172C236.359 289.167 227.969 265.655 227.969 265.655Z" fill="#090814"/>
<path opacity="0.1" d="M203.598 272.912C205.757 272.47 207.988 272.534 210.117 273.097C212.247 273.661 214.218 274.709 215.877 276.161C221.87 281.167 242.037 291.216 242.037 291.216" fill="black"/>
<path opacity="0.1" d="M353.445 272.597C353.445 272.597 326.722 276.649 321.733 282.15L353.445 272.597Z" fill="black"/>
<path d="M384.16 355.465H382.983C378.757 355.315 364.442 354.865 361.685 355.465C358.441 356.216 315.484 355.465 315.484 355.465L323.882 353.717C323.882 353.717 320.765 342.775 322.743 341.866C322.743 341.866 311.506 334.451 319.979 329.445C328.452 324.44 337.584 326.549 337.584 326.549L358.853 319.329L362.936 317.938C362.936 317.938 386.906 319.191 393.396 335.702C399.886 352.213 384.16 355.465 384.16 355.465Z" fill="#090814"/>
<path d="M201.739 136.945L214.999 124.937C214.999 124.937 266.414 121.56 268.541 139.069C268.541 139.069 286.769 118.311 325.103 122.934L341.322 135.872L296.492 155.58L252.929 170.717L220.842 156.331L201.739 136.945Z" fill="#F2F2F2"/>
<path d="M195.874 136.945L201.743 207.243L263.923 210.373L261.224 140.375L261.171 139.196L195.874 136.945Z" fill="#6565C9"/>
<path d="M344.17 135.444L280.027 145.08V215.692L342.709 206.619L344.17 135.444Z" fill="#6565C9"/>
<path opacity="0.3" d="M329.044 152.676L294.396 156.533L295.152 168.361L329.022 164.654L329.044 152.676Z" fill="white"/>
<path d="M205.111 244.888L208.64 254.396C208.64 254.396 213.884 258.899 219.623 256.648C225.362 254.396 230.366 253.278 232.861 251.086C235.355 248.895 238.854 237.885 238.854 237.885C238.854 237.885 242.352 225.877 245.843 222.876C249.334 219.874 258.579 178.514 245.843 182.559C233.107 186.604 223.368 224.129 223.368 224.129C223.368 224.129 221.121 226.875 217.877 227.131C214.633 227.386 208.138 226.628 206.888 229.382C205.638 232.136 201.366 239.387 205.111 244.888Z" fill="#ED9DA0"/>
<path d="M280.027 145.073C276.743 145.814 273.331 145.776 270.065 144.96C266.799 144.144 263.768 142.574 261.216 140.375L263.92 210.366C263.92 210.366 270.288 217.27 280.027 215.694V145.073Z" fill="#6565C9"/>
<path opacity="0.1" d="M280.027 145.073C276.743 145.814 273.331 145.776 270.065 144.96C266.799 144.144 263.768 142.574 261.216 140.375L263.92 210.366C263.92 210.366 270.288 217.27 280.027 215.694V145.073Z" fill="black"/>
<path opacity="0.1" d="M281.525 137.186C281.525 137.186 307.618 129.193 314.421 130.319L281.525 137.186Z" fill="black"/>
<path opacity="0.1" d="M252.339 133.697C252.339 133.697 227.047 127.693 222.822 129.396L252.339 133.697Z" fill="black"/>
<path opacity="0.1" d="M297.976 138.183C297.976 138.183 315.426 131.772 321.732 134.821L297.976 138.183Z" fill="black"/>
<path opacity="0.1" d="M289.189 298.961C291.893 296.927 294.771 295.136 297.79 293.61C302.284 291.441 310.525 285.812 310.525 285.812" fill="black"/>
<path opacity="0.1" d="M222.821 222.374C222.821 222.374 211.875 231.342 208.587 232.13C205.299 232.918 203.268 239.913 203.268 239.913" fill="black"/>
<path d="M337.737 243.552L334.246 253.084C334.246 253.084 329.002 257.587 323.257 255.335C317.512 253.083 312.522 251.965 310.02 249.774C307.517 247.582 304.026 236.573 304.026 236.573C304.026 236.573 300.535 224.565 297.037 221.563C293.538 218.561 284.301 177.202 297.037 181.246C309.773 185.291 319.512 222.816 319.512 222.816C319.512 222.816 321.759 225.563 325.003 225.818C328.247 226.074 334.742 225.316 335.992 228.07C337.242 230.824 341.481 238.074 337.737 243.552Z" fill="#ED9DA0"/>
<path opacity="0.1" d="M322.346 223.197C322.346 223.197 331.989 231.061 334.895 231.753C337.801 232.445 339.584 238.577 339.584 238.577" fill="black"/>
<ellipse cx="493" cy="275.5" rx="11" ry="2.5" fill="#5555BE"/>
<ellipse cx="551" cy="278.5" rx="10" ry="2.5" fill="#5555BE"/>
<path d="M554.168 256.132C554.147 256.009 554.152 255.884 554.185 255.764C554.217 255.644 554.275 255.532 554.356 255.437C554.436 255.342 554.536 255.265 554.648 255.213C554.761 255.161 554.884 255.134 555.008 255.134L556.008 252.281L556.959 253.531L555.864 256.049C555.849 256.258 555.758 256.455 555.609 256.601C555.459 256.748 555.261 256.834 555.052 256.844C554.843 256.855 554.638 256.788 554.475 256.656C554.312 256.525 554.203 256.339 554.168 256.132Z" fill="#FFB6B6"/>
<path d="M564.294 241.556C564.304 241.536 564.314 241.516 564.324 241.496C564.321 241.496 564.317 241.497 564.314 241.496L564.294 241.556Z" fill="#2F2E41"/>
<path d="M497.813 238.598C499.542 237.875 500.936 236.526 501.716 234.821C501.794 234.652 502.052 234.781 501.974 234.949C501.159 236.723 499.706 238.123 497.905 238.871C497.733 238.943 497.642 238.669 497.813 238.598Z" fill="white"/>
<path d="M543.341 234.109C545.071 233.387 546.465 232.038 547.245 230.332C547.322 230.163 547.58 230.292 547.503 230.461C546.688 232.234 545.234 233.635 543.433 234.383C543.261 234.454 543.171 234.18 543.341 234.109Z" fill="white"/>
<path d="M490.436 274.399L491.395 275.214L495.228 276.06L500.005 265.567C500.005 265.567 503.006 257.45 510.294 259.467L533.982 260.113C533.982 260.113 541.283 259.696 542.329 263.181C542.527 263.841 548.016 278.474 548.016 278.474L552.346 278.06L552.383 265.797L543.235 241.59L525.522 239.678L507.161 240.121L490.436 274.399Z" fill="#3F3D56"/>
<path d="M510.786 260.228C514.563 260.398 517.762 257.472 517.933 253.691C518.103 249.911 515.18 246.708 511.404 246.538C507.628 246.368 504.428 249.294 504.257 253.074C504.087 256.855 507.01 260.057 510.786 260.228Z" fill="#2F2E41"/>
<path d="M533.719 261.262C537.495 261.433 540.695 258.506 540.865 254.726C541.036 250.946 538.113 247.743 534.336 247.573C530.56 247.402 527.361 250.329 527.19 254.109C527.02 257.889 529.943 261.092 533.719 261.262Z" fill="#2F2E41"/>
<path d="M504.112 230.592L506.952 230.166C506.952 230.166 528.286 228.095 541.523 232.28L540.381 235.077L504.94 233.267L504.112 230.592Z" fill="#E6E6E6"/>
<path d="M532.03 246.572L514.041 245.76C511.856 245.662 510.037 244.062 509.714 241.958L508.19 232.012C508.156 231.795 508.168 231.573 508.225 231.361C508.281 231.148 508.381 230.95 508.519 230.779C508.663 230.599 508.842 230.451 509.045 230.343C509.248 230.236 509.472 230.171 509.701 230.154C519.242 229.403 528.637 229.824 537.626 231.407C537.849 231.445 538.063 231.528 538.253 231.652C538.443 231.776 538.605 231.938 538.73 232.127C538.851 232.307 538.933 232.511 538.972 232.724C539.011 232.938 539.006 233.157 538.956 233.369L536.695 243.114C536.207 245.217 534.245 246.672 532.03 246.572Z" fill="#6C63FF"/>
<path d="M496.037 231.836L496.179 230.429C496.202 230.21 496.276 229.999 496.398 229.815C496.519 229.631 496.683 229.48 496.875 229.373C498.043 228.727 501.176 227.329 505.049 228.311C505.321 228.38 505.565 228.531 505.748 228.744C505.931 228.957 506.044 229.222 506.072 229.501L506.144 230.24L496.037 231.836Z" fill="#3F3D56"/>
<path d="M551.175 234.323L541.253 231.823L541.474 230.652C541.5 230.514 541.567 230.386 541.665 230.286C541.764 230.186 541.89 230.117 542.028 230.089C546.588 229.16 549.949 231.327 550.871 232.014C550.958 232.079 551.029 232.164 551.079 232.261C551.128 232.358 551.155 232.466 551.156 232.575L551.175 234.323Z" fill="#3F3D56"/>
<path d="M490.889 275.341C490.648 275.333 490.414 275.256 490.215 275.118C487.604 273.43 486.062 270.482 485.635 266.36C485.282 262.954 485.685 258.718 486.831 253.769C488.864 244.994 492.687 236.304 494.236 232.975C494.441 232.536 494.747 232.151 495.128 231.851C495.509 231.552 495.955 231.346 496.43 231.25C499.34 230.671 504.418 229.709 505.73 229.768C507.529 229.849 508.425 231.588 508.434 231.605L508.439 231.62L509.709 238.546L509.704 238.645C510.443 241.636 509.699 243.738 508.945 244.975C508.126 246.318 507.116 246.962 507.106 246.968C505.517 248.07 502.842 251.73 500.129 256.52C497.31 261.497 495.163 266.436 494.387 269.733C493.438 273.769 492.258 274.964 491.437 275.256C491.261 275.32 491.075 275.349 490.889 275.341Z" fill="#E6E6E6"/>
<path d="M531.475 245.702L514.477 244.936C513.474 244.889 512.518 244.495 511.773 243.821C511.028 243.148 510.539 242.236 510.391 241.242L508.963 231.571C508.932 231.357 508.944 231.139 509 230.93C509.056 230.72 509.154 230.525 509.288 230.355C509.422 230.186 509.59 230.045 509.78 229.943C509.971 229.841 510.18 229.779 510.396 229.761C519.413 229.019 528.29 229.417 536.782 230.945C536.992 230.983 537.192 231.064 537.37 231.181C537.548 231.299 537.7 231.452 537.817 231.63C537.935 231.808 538.015 232.009 538.053 232.219C538.091 232.429 538.086 232.645 538.039 232.853L535.891 242.333C535.667 243.324 535.102 244.204 534.294 244.821C533.487 245.437 532.489 245.749 531.475 245.702Z" fill="#E6E6E6"/>
<path d="M552.386 278.115C552.199 278.106 552.016 278.06 551.848 277.981C551.055 277.616 549.989 276.32 549.406 272.215C548.93 268.861 547.237 263.749 544.877 258.538C542.606 253.524 540.272 249.638 538.786 248.395C538.779 248.39 537.831 247.658 537.137 246.247C536.497 244.947 535.946 242.786 536.95 239.874L536.956 239.764L538.845 232.984L538.849 232.977C538.859 232.961 539.909 231.31 541.707 231.391C543.019 231.45 547.99 232.866 550.837 233.704C551.301 233.842 551.727 234.087 552.079 234.42C552.432 234.753 552.701 235.164 552.866 235.62C554.109 239.075 557.134 248.074 558.369 256.996C559.065 262.028 559.084 266.283 558.426 269.643C557.63 273.71 555.829 276.507 553.073 277.956C552.864 278.074 552.625 278.129 552.386 278.115Z" fill="#E6E6E6"/>
<path d="M510.962 256.332C513.228 256.434 515.148 254.678 515.25 252.41C515.352 250.141 513.599 248.22 511.333 248.118C509.067 248.015 507.147 249.771 507.045 252.04C506.943 254.308 508.696 256.229 510.962 256.332Z" fill="#3F3D56"/>
<path d="M511.024 254.963C512.534 255.031 513.814 253.86 513.882 252.348C513.951 250.836 512.781 249.555 511.271 249.487C509.76 249.419 508.48 250.589 508.412 252.101C508.344 253.613 509.513 254.894 511.024 254.963Z" fill="#2F2E41"/>
<path d="M533.895 257.366C536.161 257.468 538.08 255.712 538.183 253.444C538.285 251.176 536.531 249.254 534.265 249.152C531.999 249.05 530.08 250.806 529.977 253.074C529.875 255.342 531.629 257.264 533.895 257.366Z" fill="#3F3D56"/>
<path d="M533.957 255.997C535.467 256.065 536.747 254.895 536.815 253.382C536.883 251.87 535.714 250.589 534.204 250.521C532.693 250.453 531.413 251.624 531.345 253.136C531.277 254.648 532.446 255.929 533.957 255.997Z" fill="#2F2E41"/>
<path d="M520.312 247.679C520.487 247.686 520.634 247.551 520.642 247.377C520.65 247.202 520.515 247.055 520.341 247.047C520.166 247.039 520.019 247.174 520.011 247.348C520.003 247.523 520.138 247.671 520.312 247.679Z" fill="#2F2E41"/>
<path d="M521.68 247.74C521.854 247.748 522.002 247.613 522.01 247.439C522.017 247.264 521.883 247.116 521.708 247.108C521.534 247.1 521.386 247.236 521.378 247.41C521.371 247.585 521.505 247.732 521.68 247.74Z" fill="#2F2E41"/>
<path d="M520.996 248.87C521.171 248.878 521.318 248.743 521.326 248.568C521.334 248.394 521.199 248.246 521.025 248.238C520.851 248.23 520.703 248.365 520.695 248.54C520.687 248.714 520.822 248.862 520.996 248.87Z" fill="#2F2E41"/>
<path d="M522.259 248.927C522.433 248.935 522.581 248.8 522.589 248.625C522.596 248.451 522.462 248.303 522.287 248.295C522.113 248.287 521.965 248.422 521.957 248.597C521.95 248.771 522.084 248.919 522.259 248.927Z" fill="#2F2E41"/>
<path d="M523.521 248.984C523.695 248.992 523.843 248.857 523.851 248.682C523.859 248.508 523.724 248.36 523.549 248.352C523.375 248.344 523.228 248.479 523.22 248.654C523.212 248.828 523.347 248.976 523.521 248.984Z" fill="#2F2E41"/>
<path d="M524.783 249.041C524.958 249.049 525.105 248.914 525.113 248.739C525.121 248.565 524.986 248.417 524.812 248.409C524.638 248.401 524.49 248.536 524.482 248.711C524.474 248.885 524.609 249.033 524.783 249.041Z" fill="#2F2E41"/>
<path d="M523.047 247.802C523.222 247.81 523.369 247.675 523.377 247.5C523.385 247.326 523.25 247.178 523.076 247.17C522.902 247.162 522.754 247.297 522.746 247.472C522.738 247.646 522.873 247.794 523.047 247.802Z" fill="#2F2E41"/>
<path d="M524.415 247.864C524.589 247.871 524.737 247.736 524.745 247.562C524.752 247.387 524.618 247.24 524.443 247.232C524.269 247.224 524.121 247.359 524.113 247.533C524.106 247.708 524.24 247.856 524.415 247.864Z" fill="#2F2E41"/>
<path d="M525.782 247.925C525.957 247.933 526.104 247.798 526.112 247.624C526.12 247.449 525.985 247.301 525.811 247.293C525.637 247.286 525.489 247.421 525.481 247.595C525.473 247.77 525.608 247.917 525.782 247.925Z" fill="#2F2E41"/>
<path d="M523.885 257.284L521.15 257.16C521.024 257.155 520.906 257.099 520.821 257.006C520.736 256.914 520.692 256.791 520.697 256.665C520.703 256.539 520.758 256.421 520.851 256.336C520.944 256.251 521.067 256.207 521.192 256.213L523.927 256.336C524.053 256.342 524.171 256.397 524.256 256.49C524.341 256.583 524.385 256.706 524.379 256.831C524.374 256.957 524.318 257.075 524.226 257.16C524.133 257.245 524.01 257.289 523.885 257.284Z" fill="#2F2E41"/>
<path d="M506.704 235.868C506.527 235.859 506.359 235.791 506.225 235.675C506.092 235.559 506.002 235.402 505.969 235.228L505.63 233.426C505.591 233.221 505.636 233.01 505.753 232.838C505.871 232.666 506.052 232.548 506.256 232.509C506.461 232.47 506.672 232.515 506.844 232.632C507.016 232.749 507.134 232.93 507.173 233.135L507.512 234.937C507.534 235.053 507.529 235.173 507.498 235.288C507.467 235.402 507.41 235.508 507.333 235.598C507.255 235.687 507.158 235.758 507.049 235.805C506.94 235.852 506.822 235.873 506.704 235.868Z" fill="#3F3D56"/>
<path d="M540.299 237.277C540.18 237.272 540.065 237.24 539.96 237.184C539.856 237.127 539.766 237.048 539.696 236.952C539.627 236.856 539.58 236.745 539.56 236.628C539.539 236.512 539.545 236.392 539.577 236.277L540.077 234.514C540.134 234.313 540.268 234.144 540.45 234.042C540.632 233.941 540.846 233.916 541.047 233.973C541.247 234.03 541.416 234.164 541.518 234.346C541.619 234.527 541.644 234.742 541.588 234.943L541.088 236.706C541.04 236.877 540.936 237.025 540.792 237.129C540.649 237.233 540.475 237.285 540.299 237.277Z" fill="#3F3D56"/>
<path d="M500.679 240.868C500.421 240.857 500.172 240.766 499.968 240.608L499.115 239.951C498.955 239.828 498.826 239.667 498.741 239.483C498.656 239.3 498.616 239.098 498.625 238.895L498.71 237.006C498.728 236.626 498.895 236.269 499.175 236.013C499.455 235.757 499.825 235.623 500.205 235.639L501.553 235.7C501.932 235.718 502.289 235.885 502.545 236.165C502.8 236.446 502.935 236.816 502.918 237.196L502.832 239.104C502.823 239.301 502.768 239.493 502.671 239.665C502.574 239.837 502.438 239.984 502.275 240.094L501.436 240.656C501.213 240.806 500.948 240.881 500.679 240.868Z" fill="#3F3D56"/>
<path d="M501.007 247.81L499.658 247.749C499.279 247.732 498.923 247.565 498.667 247.284C498.411 247.004 498.277 246.633 498.293 246.254L498.378 244.364C498.388 244.162 498.446 243.964 498.547 243.789C498.649 243.614 498.791 243.465 498.962 243.357L499.87 242.779C500.092 242.638 500.354 242.57 500.617 242.585C500.88 242.6 501.132 242.697 501.337 242.864L502.121 243.499C502.274 243.623 502.396 243.782 502.477 243.962C502.558 244.142 502.596 244.338 502.587 244.535L502.501 246.444C502.484 246.823 502.316 247.18 502.036 247.436C501.756 247.692 501.386 247.827 501.007 247.81Z" fill="#3F3D56"/>
<path d="M505.393 244.051L503.505 243.966C503.303 243.957 503.106 243.899 502.931 243.797C502.755 243.696 502.607 243.553 502.499 243.382L501.922 242.473C501.781 242.25 501.713 241.989 501.728 241.725C501.743 241.462 501.84 241.21 502.006 241.005L502.641 240.219C502.765 240.066 502.924 239.944 503.103 239.863C503.283 239.782 503.48 239.744 503.677 239.753L505.583 239.839C505.962 239.856 506.318 240.024 506.574 240.304C506.83 240.584 506.964 240.955 506.948 241.334L506.887 242.684C506.869 243.064 506.702 243.421 506.422 243.677C506.142 243.933 505.772 244.068 505.393 244.051Z" fill="#3F3D56"/>
<path d="M497.411 243.691L495.523 243.606C495.144 243.588 494.788 243.421 494.532 243.141C494.276 242.86 494.142 242.49 494.158 242.11L494.219 240.76C494.237 240.381 494.404 240.024 494.684 239.768C494.964 239.511 495.334 239.377 495.713 239.394L497.62 239.48C497.817 239.489 498.009 239.544 498.181 239.641C498.352 239.738 498.499 239.874 498.609 240.038L499.17 240.877C499.317 241.096 499.391 241.356 499.383 241.619C499.374 241.883 499.283 242.138 499.122 242.347L498.466 243.2C498.342 243.361 498.182 243.489 497.998 243.575C497.815 243.66 497.613 243.7 497.411 243.691Z" fill="#3F3D56"/>
<path d="M545.92 240.814C547.256 240.874 548.389 239.839 548.449 238.501C548.509 237.163 547.475 236.03 546.139 235.97C544.802 235.91 543.67 236.945 543.61 238.283C543.55 239.621 544.584 240.754 545.92 240.814Z" fill="#3F3D56"/>
<path d="M551.033 246.637C552.37 246.698 553.502 245.662 553.562 244.324C553.622 242.987 552.588 241.853 551.252 241.793C549.916 241.733 548.783 242.768 548.723 244.106C548.663 245.444 549.697 246.577 551.033 246.637Z" fill="#3F3D56"/>
<path d="M545.431 251.661C546.767 251.721 547.899 250.685 547.96 249.348C548.02 248.01 546.986 246.877 545.649 246.817C544.313 246.756 543.181 247.792 543.121 249.13C543.06 250.467 544.095 251.6 545.431 251.661Z" fill="#3F3D56"/>
<path d="M540.308 246.048C541.644 246.108 542.777 245.073 542.837 243.735C542.897 242.398 541.863 241.264 540.527 241.204C539.19 241.144 538.058 242.179 537.998 243.517C537.938 244.855 538.972 245.988 540.308 246.048Z" fill="#3F3D56"/>
<path d="M551.071 245.795C550.759 245.781 550.458 245.674 550.207 245.489C549.955 245.304 549.764 245.048 549.658 244.754C549.551 244.46 549.534 244.141 549.609 243.837C549.684 243.534 549.847 243.259 550.077 243.048C550.308 242.837 550.596 242.699 550.905 242.652C551.214 242.605 551.529 242.651 551.812 242.783C552.095 242.916 552.333 243.129 552.494 243.397C552.656 243.665 552.735 243.974 552.721 244.287C552.701 244.705 552.517 245.099 552.208 245.382C551.898 245.665 551.49 245.813 551.071 245.795ZM551.204 242.846C550.934 242.834 550.666 242.903 550.434 243.043C550.203 243.183 550.018 243.389 549.903 243.634C549.788 243.88 549.749 244.154 549.789 244.422C549.83 244.69 549.949 244.94 550.132 245.14C550.315 245.34 550.552 245.481 550.815 245.546C551.078 245.611 551.354 245.596 551.609 245.504C551.864 245.411 552.085 245.246 552.245 245.027C552.406 244.809 552.498 244.548 552.51 244.277C552.526 243.914 552.398 243.56 552.153 243.291C551.908 243.023 551.567 242.863 551.204 242.846Z" fill="#E6E6E6"/>
<path d="M547.667 239.644L544.498 239.456L546.246 236.802L547.667 239.644ZM544.875 239.267L547.315 239.412L546.221 237.223L544.875 239.267Z" fill="#E6E6E6"/>
<path d="M541.623 244.947L539.098 244.833L539.212 242.305L541.737 242.419L541.623 244.947ZM539.318 244.632L541.422 244.727L541.517 242.62L539.413 242.526L539.318 244.632Z" fill="#E6E6E6"/>
<path d="M546.797 250.385L545.692 249.177L546.758 248.204L546.616 248.048L545.55 249.021L544.576 247.956L544.42 248.099L545.394 249.164L544.186 250.267L544.327 250.423L545.537 249.319L546.641 250.527L546.797 250.385Z" fill="#E6E6E6"/>
</g>
<path d="M5.05007 282.096C7.83999 281.892 11.5382 282.104 14.3371 282.399C14.5394 282.42 14.675 282.458 14.769 282.505C15.0715 282.666 14.9144 282.935 15.3801 282.998C16.5867 283.158 17.6705 282.945 18.8493 283.135C19.2449 283.2 18.7559 283.874 19.1722 283.927C21.4059 284.21 23.5137 284.023 25.7709 284.142C36.9144 284.73 47.8403 284.729 59.099 284.544C62.8114 284.483 67.3449 284.862 71.1544 284.364C71.5988 284.305 71.2971 283.733 71.379 283.679C72.6647 282.855 72.2956 284.07 73.174 284.174C76.6634 284.58 80.5082 284.358 83.8036 283.861C85.2051 283.647 83.6962 282.597 85.1677 283.134C85.2699 283.17 84.9649 283.824 85.3568 283.858C85.4054 283.862 85.4563 283.866 85.5092 283.868C86.4261 283.907 87.9354 283.677 88.5822 283.665C89.9003 283.643 90.1145 283.617 91.3528 283.505C93.0443 283.358 95.0868 283.463 96.8837 283.125C97.2669 283.051 96.6861 282.468 97.29 282.293C97.895 282.117 99.529 281.988 100.096 282.074C100.663 282.161 100.488 282.689 100.598 282.792C101.515 283.669 103.242 282.099 103.479 282.035C107.825 280.924 111.706 281.164 115.847 280.539C118.988 280.062 122.298 279.268 125.284 278.791C128.839 278.226 131.913 278.019 135.339 277.305C135.703 277.23 135.133 276.571 135.577 276.477C140.261 275.49 144.936 274.617 149.719 274.109C150.202 274.058 149.733 274.836 150.224 274.824C153.199 274.743 158.038 274.999 159.098 271.795C161.056 271.464 163.437 271.03 165.301 271.188C166.508 271.288 165.59 272.246 166.89 271.622C167.182 271.482 166.636 270.962 167.085 270.799C168.984 270.11 171.154 269.798 173.024 269.006C173.397 268.845 173.156 268.32 173.243 268.194C173.971 267.166 175.857 268.108 176.225 268.119C176.307 268.122 176.388 268.123 176.468 268.124C179.078 268.158 180.865 267.428 183.205 266.853C183.768 266.715 182.917 266.146 183.452 265.987C186.191 265.179 189.096 264.498 191.899 264.115C192.522 264.032 192.131 264.804 192.437 264.797C193.785 264.754 193.765 263.494 195.052 263.429C195.322 263.413 195.319 263.988 195.382 264.034C196.358 264.766 196.651 263.286 196.833 263.207C199.132 262.174 201.01 263.136 203.273 262.317C203.542 262.219 202.738 261.709 203.504 261.472C208.624 259.886 214.132 258.561 219.389 257.656C220.205 257.514 219.783 258.182 219.851 258.23C220.942 258.977 221.098 257.517 221.342 257.394C223.282 256.458 225.503 257.007 226.438 255.049C235.225 253.094 243.52 249.657 252.455 248.392C252.569 248.374 252.574 249.075 252.799 249.036C255.509 248.584 254.702 247.744 256.034 245.988C256.37 245.547 258.147 246.597 258.299 246.667C258.849 246.928 258.711 248.019 258.877 248.05C260.247 248.277 259.055 245.197 260.635 244.69C260.686 244.679 260.664 245.324 260.815 245.339C261.285 245.387 261.62 245.026 262.087 245.095C263.161 245.257 263.985 246.676 265.109 245.331C265.25 245.158 264.4 243.467 265.836 243.093C266.412 242.944 268.889 242.098 269.62 241.983C270.355 241.868 270.066 242.598 270.124 242.607C272.254 242.741 271.645 243.29 272.958 244.097C274.271 244.899 273.122 242.326 273.404 241.902C273.684 241.479 275.275 241.639 275.684 241.742C276.095 241.845 275.796 242.35 276.138 242.371C278.397 242.5 276.564 240.758 277.074 240.115C278.277 238.594 280.153 240.15 281.626 239.858C282.026 239.778 281.559 239.438 281.886 239.279C283.181 238.652 284.201 238.985 285.531 237.888C285.751 237.709 286.573 236.095 287.675 236.678C287.832 236.762 287.684 237.365 288.294 237.272C289.197 237.137 290.79 236.688 291.643 236.197C292.275 235.833 291.213 235.308 292.151 235.252C292.567 235.228 292.039 235.949 292.808 235.864C293.582 235.777 295.385 235.097 296.061 234.829C296.737 234.562 296.14 234.092 296.18 234.03C296.43 233.673 297.641 232.892 297.756 232.85C298.384 232.608 299.009 232.38 299.631 232.164C304.807 230.361 309.931 229.259 314.841 226.924C315.273 226.719 314.722 226.205 314.785 226.168C316.185 225.29 315.681 227.455 316.962 227.589C316.284 226.369 317.007 226.346 318.017 225.766C318.501 225.486 318.017 225.105 318.043 225.035C318.491 223.968 319.416 224.724 319.634 224.867C320.442 225.389 320.635 224.294 321.18 224.64C321.726 224.981 321.239 226.03 322.255 225.594C322.348 225.017 321.092 224.137 321.781 223.62C324.387 221.671 330.192 220.264 332.556 219.322C334.906 218.392 335.633 217.961 337.039 217.521C339.614 216.704 338.319 216.237 339.632 215.148C340.965 214.048 341.221 216.536 341.653 216.897C342.081 217.259 342.093 216.676 342.475 216.807C342.856 216.938 342.433 217.517 343.095 217.324C343.756 217.133 345.088 215.507 345.071 214.926C345.053 213.687 343.775 212.985 345.601 212.578C345.706 212.556 345.667 213.264 346.055 213.149C349.121 212.221 352.093 210.809 355.117 209.779C355.537 209.636 355.494 210.431 355.742 210.355C358.303 209.572 356.938 208.948 357.648 207.139C358.14 208.823 359.311 209.419 361.123 208.507C362.19 207.969 361.671 207.388 362.124 206.558C362.261 206.308 363.251 206.38 363.222 205.995C363.14 204.733 361.845 203.945 363.906 203.456C363.997 203.437 364.037 204.131 364.329 204.022C366.244 203.307 365.899 202.119 367.745 200.976C369.213 200.07 372.237 199.287 374.013 198.459C374.894 200.189 376.311 198.914 376.328 197.38C376.666 197.214 377 197.037 377.33 196.861C378.162 196.416 378.965 195.975 379.787 195.668C380.18 195.522 380.215 196.146 380.29 196.174C381.465 196.61 381.318 195.201 381.522 195.028C383.866 193.142 386.442 192.8 388.338 190.51C388.398 190.432 387.842 189.194 388.98 189.643C389.061 189.672 388.602 190.684 389.743 190.024C390.871 189.373 393.367 188.599 394.404 186.98C394.668 186.585 394.757 185.101 395.937 185.152C396.098 185.158 396.273 185.526 396.545 185.563C397.424 185.664 396.646 184.513 397.932 184.823C398.413 184.933 398.937 184.931 399.435 184.783C400.293 184.518 401.1 183.721 401.301 182.404C401.316 182.334 400.616 181.405 400.897 180.909C401.358 180.108 402.095 178.981 402.42 178.053C402.576 177.611 401.842 177.669 401.858 177.589C402.477 174.649 403.452 172.669 404.104 169.485C404.119 169.407 404.134 169.328 404.148 169.248C404.276 168.605 403.378 166.959 403.897 165.733C404.421 164.322 408.072 165.049 406.359 161.872C405.583 160.529 401.224 160.839 402.097 157.95C401.853 157.616 401.619 157.284 401.39 156.95C401.363 156.903 401.263 156.805 401.217 156.775C397.877 154.941 394.705 152.782 390.729 152.47C390.535 152.454 389.655 153.435 389.239 153.323C388.6 153.148 388.366 152.542 387.902 152.409C385.968 151.845 384.091 152.023 382.2 151.704C381.487 151.587 381.806 151.058 380.935 150.923C380.079 150.794 379.418 151.468 378.276 151.001C377.421 150.647 376.638 149.058 375.463 148.795C375.302 150.283 374.504 150.191 373.02 150.497C372.734 150.557 373.004 151.094 372.868 151.149C372.33 151.387 371.862 150.929 371.333 151.194C371.205 151.258 371.173 151.768 371.067 151.849C370.2 152.557 368.817 151.35 368.595 151.142C367.703 150.347 367.219 150.996 366.532 150.675C365.831 150.355 366.907 150.013 366.079 149.807C364.348 149.38 362.137 149.419 360.366 149.375C359.671 149.361 360.138 150.048 360.038 150.062C359.492 150.122 358.938 150.053 358.411 150.019C357.558 149.995 356.799 150.067 356.353 150.936C355.143 147.503 355.492 151.284 353.446 150.855C353.288 150.824 352.782 149.219 353.415 148.877C354.056 148.536 355.102 148.956 355.97 148.526C356.169 148.421 357.325 146.812 357.488 146.715C357.833 146.505 358.094 146.53 358.309 146.681C358.334 146.681 358.409 146.679 358.434 146.68C358.995 147.114 359.091 148.473 359.14 148.573C359.889 150.049 361.338 148.392 361.732 148.283C363.465 147.779 364.951 148.162 366.435 147.828C367.387 147.613 367.547 145.992 368.305 146.07C370.823 146.332 371.568 148.638 374.059 146.822C374.601 146.438 374.187 144.624 375.951 146.152C376.058 146.247 377.326 147.627 378.171 146.894C378.279 146.801 378.319 146.285 378.456 146.254C379.382 146.057 379.905 146.523 380.902 146.434C381.872 146.343 383.09 146.196 384.178 146.529C384.829 146.727 385.546 147.816 385.817 148.101C386.602 148.918 387.763 148.001 388.155 148.919C388.542 149.843 387.237 150.856 388.54 151.674C388.873 150.37 389.286 149.046 389.663 147.744C392.937 148.51 396.093 149.91 399.302 151.355C399.703 151.535 399.606 150.688 400.049 150.869C401.381 151.426 402.418 152.278 403.541 153.063C403.962 153.345 404.895 154.25 405.142 154.692C405.404 155.182 405.688 155.676 406.028 156.18C406.94 157.519 408.421 158.891 409.209 160.637C408.131 162.189 409.319 164.673 409.268 166.836C409.255 167.574 408.838 167.536 408.706 168.047C408.154 169.95 409.525 169.13 409.706 169.703C409.746 169.849 409.772 169.987 409.785 170.117C410.026 171.834 407.305 171.724 406.991 173.777C406.98 173.88 408.267 175.677 408.305 175.92C408.623 177.383 407.701 175.996 407.373 176.764C406.749 178.169 406.076 179.015 405.825 180.88C405.762 181.41 406.126 183.082 404.885 183.671C404.725 183.746 404.29 183.411 404.208 183.493C402.724 184.964 404.076 185.928 403.726 187.343C403.652 187.624 403.494 187.887 403.286 188.119C402.643 188.844 401.174 189.221 400.781 189.222C399.487 189.272 401.032 188.442 400.994 188.341C400.647 187.21 399.928 188.26 399.162 188.848C397.918 187.734 397.056 188.622 398.374 189.446C398.523 189.535 398.968 188.928 399.162 188.848C399.674 190.623 398.545 191.86 396.394 191.532C395.384 191.373 395.444 190.327 393.896 191.763C393.18 192.41 394.128 193.161 393.588 193.889C392.335 195.559 389.665 195.917 388.086 197.032C387.505 197.442 388.421 197.637 388.03 197.938C387.024 198.72 385.782 198.884 384.81 199.709C384.719 199.786 385.292 200.22 384.945 200.425C383.46 201.31 382.008 201.974 380.502 202.668C379.425 203.161 378.288 203.69 377.128 204.314C375.793 205.033 373.598 206.625 372.186 207.292C369.736 208.458 366.338 209.152 364.39 210.415C363.108 211.241 363.704 211.675 363.337 212.368C362.615 213.716 359.942 213.316 359.56 213.237C359.55 213.233 360.645 212.508 359.872 212.519C359.193 212.07 359.572 213.228 359.56 213.237C359.316 213.187 356.922 214.214 356.523 214.55C356.305 214.735 356.721 215.226 356.602 215.312C353.736 217.353 350.663 219.014 347.348 220.255C347.287 220.27 347.073 219.598 346.933 219.641C344.951 220.231 344.145 221.548 342.813 222.721C341.513 223.879 340.198 224.29 338.81 223.601C337.712 224.263 335.841 224.52 334.75 224.651C333.654 224.785 334.077 226.084 334.003 226.146C331.723 228.091 329.87 228.046 327.09 229.1C325.753 229.606 323.246 230.873 321.88 231.599C320.811 232.171 320.005 232.158 319.045 232.77C318.917 232.852 319.286 233.356 319.253 233.395C318.376 234.535 318.37 232.938 318.033 232.79C316.811 232.248 316.07 231.996 314.768 233.005C314.469 233.237 314.263 235.615 313.678 235.981C312.916 236.453 312.944 235.62 312.165 236.126C312.098 236.169 312.286 236.602 311.753 236.789C309.266 237.668 306.497 238.44 303.974 239.443C303.626 239.579 304.338 240.11 303.839 240.318C303.511 240.455 303.176 240.591 302.837 240.726C300.785 241.543 298.552 242.298 296.464 242.736C295.863 242.86 296.042 242.238 295.866 242.137C294.78 241.531 294.183 243.198 294.011 243.287C289.992 245.428 286.341 245.396 282.205 247.437C281.983 247.549 280.629 249.56 279.42 248.641C279.338 248.581 278.127 247.634 277.698 248.706C277.671 248.773 278.383 249.231 277.488 249.461C276.589 249.693 275.331 250.58 273.899 250.289C273.447 250.197 272.142 249.279 271.333 250.621C271.284 250.713 270.251 253.485 269.127 252.174C268.945 251.957 268.525 250.32 267.442 251.582C267.236 251.825 267.822 252.031 267.213 252.475C266.281 253.159 264.751 253.178 263.698 254.304C263.515 254.503 262.908 255.9 261.876 255.316C261.714 255.225 261.772 254.615 261.347 254.684C259.332 255.008 257.426 256.004 255.355 256.242C254.622 256.327 254.705 255.347 253.91 255.339C253.116 255.331 251.592 255.558 250.959 256.188C250.326 256.819 251.58 257.952 250.48 258.412C245.694 260.411 240.552 261.068 235.58 262.403C234.842 262.601 235.596 262.921 234.518 263.247C230.55 264.457 223.791 266.904 220.028 266.813C217.01 266.743 220.323 265.113 218.105 265.362C217.036 265.484 216.389 267.417 216.152 267.538C213.876 268.732 212.002 268.474 209.885 269.292C209.449 269.46 210.07 270 209.696 270.136C208.428 270.606 206.959 270.688 205.73 271.079C205.177 271.255 205.419 271.731 204.891 271.832C203.626 272.079 202.476 272.16 201.151 272.006C201.03 271.992 201.601 271.168 200.682 271.387C199.18 271.749 197.244 271.762 195.653 272.695C195.185 272.972 195.466 274.134 194.173 273.619C193.901 273.512 193.835 272.047 192.878 273.576C192.715 273.832 191 276.003 189.693 275.226C189.344 275.023 188.345 274.068 187.782 274.402C187.707 274.452 188.197 274.988 187.707 275.178C185.992 275.832 184.087 276.244 182.321 276.893C181.842 277.07 182.736 277.53 182.017 277.773C181.108 278.08 180.081 278.341 179.049 278.559C177.814 278.82 176.573 279.021 175.496 279.168C174.747 279.271 175.121 278.614 175.054 278.568C173.971 277.831 173.781 279.228 173.517 279.371C171.891 280.236 170.385 279.962 168.825 280.5C168.392 280.647 168.85 281.182 168.775 281.258C167.972 282.008 168.404 280.75 167.79 280.768C166.074 280.812 164.262 281.286 162.63 281.743C162.033 281.911 162.874 282.463 162.337 282.606C159.125 283.471 155.742 284.154 152.497 284.445C151.881 284.499 152.141 283.871 151.989 283.773C150.94 283.085 149.945 284.543 149.682 284.717C148.474 285.515 147.856 285.139 146.72 285.469C141.127 287.103 134.015 288.133 128.573 288.87C121.482 289.836 115.908 290.155 109.168 291.199C108.739 291.264 109.271 291.944 108.902 292.01C104.132 292.822 99.3673 293.084 94.5726 293.785C94.1787 293.841 94.8199 294.485 94.1894 294.598C92.8966 294.836 91.2395 294.956 89.9007 294.852C89.2477 294.802 90.0553 294.121 89.3997 294.083C88.414 294.025 87.3925 294.042 86.3755 294.125C85.8201 294.17 85.2669 294.236 84.7235 294.32C84.0699 294.423 85.1208 295.061 84.2659 295.139C78.4452 295.678 72.7269 296.174 66.8008 295.554C66.3941 295.511 65.9658 294.066 65.1269 294.39C65.083 294.8 65.1108 295.277 65.1046 295.713C56.6488 296.377 48.2646 296.156 39.7923 296.267C39.4351 296.272 40.0692 297.035 39.3784 297.048C35.3873 297.124 31.4912 297.404 27.3883 296.679C26.9803 296.608 27.175 295.24 25.9863 295.459C25.7649 295.499 23.9848 295.699 23.5113 295.999C23.4488 296.045 23.7814 296.68 23.2033 296.703C20.4674 296.805 17.5784 296.738 14.8245 296.504C14.1717 296.452 13.5872 296.39 12.9477 296.321C12.4081 296.259 12.9786 295.577 12.5966 295.527C9.85476 295.176 6.89112 295.7 4.25474 295.076C2.50092 294.653 3.14191 293.482 2.2195 292.318C2.08967 292.155 0.978487 292.111 0.932416 291.434C0.847378 289.74 1.39689 287.903 1.23774 286.096C1.24197 285.902 0.82943 285.897 0.799709 285.832C0.809689 285.819 0.823404 285.79 1.108 285.812C1.19287 285.822 1.25778 285.826 1.43123 285.865C1.50899 285.882 1.59317 285.904 1.68078 285.93C1.76809 285.956 1.92816 286.013 2.05752 286.068C2.28966 286.159 2.69462 286.394 2.91109 286.559C3.14702 286.733 3.26025 286.838 3.28506 286.844C3.31438 286.855 3.31295 286.836 3.32499 286.828C3.33042 286.815 3.35018 286.808 3.20733 286.654C3.13039 286.574 3.02545 286.473 2.88555 286.359C2.75297 286.248 2.52856 286.095 2.37766 286.006C2.22979 285.916 2.06776 285.831 1.91121 285.759C1.73385 285.681 1.6775 285.655 1.56675 285.61C1.15584 285.454 1.04972 285.41 0.950811 285.345C0.870203 285.286 0.84569 285.232 0.847183 285.173C0.70931 285.11 1.69597 284.826 1.94784 284.508C2.11829 284.29 1.81993 283.602 2.17418 283.325C2.52144 283.047 2.90931 283.624 3.50981 283.296C4.1121 282.964 3.8452 282.185 5.05007 282.096ZM329.863 225.225C328.721 225.008 329.539 227.261 330.27 226.32C330.304 226.272 329.921 225.234 329.863 225.225ZM395.407 151.754C396.276 153.196 397.713 152.136 397.124 151.008C396.501 149.879 395.123 151.313 395.407 151.754ZM382.071 149.57C383.43 150.585 384.148 147.259 382.434 147.726C382.335 147.752 381.99 149.511 382.071 149.57ZM6.54877 292.004C6.5429 291.973 5.74745 291.941 5.74047 291.973C5.32504 292.733 6.88357 292.795 6.54877 292.004ZM368.996 149.41C369.435 149.886 370.791 149.418 370.244 148.822C369.799 148.341 368.448 148.817 368.996 149.41ZM282.045 240.949C282.019 240.92 281.483 241.071 281.559 241.258C281.806 241.859 282.478 241.434 282.045 240.949ZM346.964 151.509C350.144 150.363 352.716 152.576 349.466 153.334C348.864 153.493 350.415 152.04 349.588 152.069C348.032 152.143 347.797 154.152 346.045 153.872C345.724 153.82 346.777 151.566 346.968 151.503C346.967 151.505 346.966 151.507 346.964 151.509ZM328.213 222.808C328.183 222.786 327.463 223.065 327.458 223.101C327.374 223.964 328.828 223.403 328.213 222.808ZM250.68 249.629C250.619 249.578 248.893 250.046 248.855 250.122C248.329 251.585 251.825 250.641 250.68 249.629ZM374.064 198.49C374.432 197.422 375.27 196.863 376.324 197.381C375.563 197.738 374.816 198.136 374.064 198.49Z" fill="white"/>
<defs>
<clipPath id="clip0_208_2">
<rect width="483" height="376" fill="white" transform="translate(134)"/>
</clipPath>
</defs>
</svg>
