<svg width="48" height="48" viewBox="0 0 48 48" fill="none" xmlns="http://www.w3.org/2000/svg">
<mask id="mask0_39_67" style="mask-type:alpha" maskUnits="userSpaceOnUse" x="0" y="0" width="48" height="48">
<rect width="48" height="48" fill="#D9D9D9"/>
</mask>
<g mask="url(#mask0_39_67)">
<path d="M5.5 40C5.075 40 4.71883 39.8553 4.4315 39.566C4.14383 39.277 4 38.9187 4 38.491C4 38.0637 4.14383 37.7083 4.4315 37.425C4.71883 37.1417 5.075 37 5.5 37H42.5C42.925 37 43.2813 37.1447 43.569 37.434C43.8563 37.723 44 38.0813 44 38.509C44 38.9363 43.8563 39.2917 43.569 39.575C43.2813 39.8583 42.925 40 42.5 40H5.5ZM9.941 32C9.51367 32 9.15833 31.8562 8.875 31.5685C8.59167 31.2812 8.45 30.925 8.45 30.5V17.7C8.45 17.275 8.59467 16.9187 8.884 16.631C9.173 16.3437 9.53133 16.2 9.959 16.2C10.3863 16.2 10.7417 16.3437 11.025 16.631C11.3083 16.9187 11.45 17.275 11.45 17.7V30.5C11.45 30.925 11.3053 31.2812 11.016 31.5685C10.727 31.8562 10.3687 32 9.941 32ZM17.891 32C17.4637 32 17.1083 31.8562 16.825 31.5685C16.5417 31.2812 16.4 30.925 16.4 30.5V9.5C16.4 9.075 16.5447 8.71867 16.834 8.431C17.123 8.14367 17.4813 8 17.909 8C18.3363 8 18.6917 8.14367 18.975 8.431C19.2583 8.71867 19.4 9.075 19.4 9.5V30.5C19.4 30.925 19.2553 31.2812 18.966 31.5685C18.677 31.8562 18.3187 32 17.891 32ZM25.841 32C25.4137 32 25.0583 31.8562 24.775 31.5685C24.4917 31.2812 24.35 30.925 24.35 30.5V9.5C24.35 9.075 24.4947 8.71867 24.784 8.431C25.073 8.14367 25.4313 8 25.859 8C26.2863 8 26.6417 8.14367 26.925 8.431C27.2083 8.71867 27.35 9.075 27.35 9.5V30.5C27.35 30.925 27.2053 31.2812 26.916 31.5685C26.627 31.8562 26.2687 32 25.841 32ZM39.35 31.25C38.9833 31.45 38.6083 31.5083 38.225 31.425C37.8417 31.3417 37.55 31.1167 37.35 30.75L30.65 19.35C30.4167 18.9833 30.3588 18.5923 30.4765 18.177C30.5938 17.7617 30.8355 17.4533 31.2015 17.252C31.5672 17.0507 31.9583 17 32.375 17.1C32.7917 17.2 33.1 17.4333 33.3 17.8L39.9 29.25C40.1 29.6167 40.15 29.9917 40.05 30.375C39.95 30.7583 39.7167 31.05 39.35 31.25Z" fill="#1C1B1F"/>
</g>
</svg>
